<?xml version="1.0" encoding="UTF-8" standalone="no"?>
<svg
   xmlns:dc="http://purl.org/dc/elements/1.1/"
   xmlns:cc="http://creativecommons.org/ns#"
   xmlns:rdf="http://www.w3.org/1999/02/22-rdf-syntax-ns#"
   xmlns:svg="http://www.w3.org/2000/svg"
   xmlns="http://www.w3.org/2000/svg"
   xmlns:sodipodi="http://sodipodi.sourceforge.net/DTD/sodipodi-0.dtd"
   xmlns:inkscape="http://www.inkscape.org/namespaces/inkscape"
   viewBox="0 0 385.06172 59.04"
   height="62.975998"
   width="410.73248"
   xml:space="preserve"
   id="svg2"
   version="1.1"
   inkscape:version="0.92.3 (2405546, 2018-03-11)"
   sodipodi:docname="tc-s_frilagd.svg"
   inkscape:export-filename="/home/kenneth/Dokument/Dropbox/TCS/Logotyper/TeknikCollege/tc-s.png"
   inkscape:export-xdpi="71"
   inkscape:export-ydpi="71"><sodipodi:namedview
     pagecolor="#ffffff"
     bordercolor="#666666"
     borderopacity="1"
     objecttolerance="10"
     gridtolerance="10"
     guidetolerance="10"
     inkscape:pageopacity="0"
     inkscape:pageshadow="2"
     inkscape:window-width="1600"
     inkscape:window-height="835"
     id="namedview47"
     showgrid="false"
     inkscape:zoom="0.84096492"
     inkscape:cx="-184.4644"
     inkscape:cy="221.49142"
     inkscape:window-x="0"
     inkscape:window-y="0"
     inkscape:window-maximized="1"
     inkscape:current-layer="layer1"
     fit-margin-top="0"
     fit-margin-left="0"
     fit-margin-right="0"
     fit-margin-bottom="0"
     showborder="true" /><metadata
     id="metadata8"><rdf:RDF><cc:Work
         rdf:about=""><dc:format>image/svg+xml</dc:format><dc:type
           rdf:resource="http://purl.org/dc/dcmitype/StillImage" /><dc:title></dc:title></cc:Work></rdf:RDF></metadata><defs
     id="defs6"><clipPath
       id="clipPath42"
       clipPathUnits="userSpaceOnUse"><path
         id="path40"
         d="M 0,841.89 H 595.276 V 0 H 0 Z"
         inkscape:connector-curvature="0" /></clipPath><clipPath
       clipPathUnits="userSpaceOnUse"
       id="clipPath40"><path
         d="M 0,841.89 H 595.276 V 0 H 0 Z"
         id="path38"
         inkscape:connector-curvature="0" /></clipPath><clipPath
       clipPathUnits="userSpaceOnUse"
       id="clipPath104"><path
         d="M 0,841.89 H 595.276 V 0 H 0 Z"
         id="path102"
         inkscape:connector-curvature="0" /></clipPath><clipPath
       clipPathUnits="userSpaceOnUse"
       id="clipPath176"><path
         d="M 0,841.89 H 595.276 V 0 H 0 Z"
         id="path174"
         inkscape:connector-curvature="0" /></clipPath></defs><g
     inkscape:groupmode="layer"
     id="layer3"
     inkscape:label="Layer 3"
     transform="translate(-20.777499,-331.10608)" /><g
     inkscape:groupmode="layer"
     id="layer1"
     inkscape:label="Layer 1"
     style="display:inline"
     transform="translate(-229.74985,-737.76382)"><text
   xml:space="preserve"
   style="font-style:normal;font-weight:normal;line-height:0%;font-family:sans-serif;letter-spacing:100px;word-spacing:0px;fill:#000000;fill-opacity:1;stroke:none;stroke-width:1px;stroke-linecap:butt;stroke-linejoin:miter;stroke-opacity:1"
   x="229.74985"
   y="770.64038"
   id="text4217"><tspan
     sodipodi:role="line"
     id="tspan4219"
     x="229.74985"
     y="770.64038"
     style="font-size:40px;line-height:1.25"> </tspan></text>



<g
   style="font-style:normal;font-weight:normal;font-size:40px;line-height:125%;font-family:sans-serif;letter-spacing:0px;word-spacing:0px;fill:#29568f;fill-opacity:1;stroke:none;stroke-width:1px;stroke-linecap:butt;stroke-linejoin:miter;stroke-opacity:1"
   id="text4221" /><g
   id="g4283"><path
     id="path4242"
     style="font-style:normal;font-variant:normal;font-weight:normal;font-stretch:normal;font-size:60px;line-height:125%;font-family:'Adobe Garamond Pro';-inkscape-font-specification:'Adobe Garamond Pro';letter-spacing:0px;word-spacing:0px;display:inline;fill:#29568f;fill-opacity:1;stroke:none;stroke-width:1px;stroke-linecap:butt;stroke-linejoin:miter;stroke-opacity:1"
     d="m 332.32687,756.18382 c -4.56,0 -8.16,2.46 -8.16,6.84 0,3.3 2.46,5.4 5.94,7.38 2.22,1.26 4.62,2.76 4.62,5.52 0,2.58 -1.86,3.84 -4.02,3.84 -3.42,0 -5.34,-2.88 -6.36,-6.18 -0.3,-0.36 -1.08,-0.3 -1.38,0.06 -0.12,1.98 0.24,4.92 0.72,6.06 1.5,1.2 3.6,1.8 6.42,1.8 4.44,0 8.64,-2.28 8.64,-6.84 0,-4.26 -2.94,-6.3 -6.12,-8.1 -2.1,-1.2 -4.62,-2.52 -4.62,-4.98 0,-2.16 1.5,-3.66 3.84,-3.66 2.46,0 4.26,1.74 5.28,4.38 0.3,0.36 1.2,0.24 1.44,-0.18 0,-1.62 -0.42,-3.54 -0.96,-4.86 -0.54,-0.48 -2.76,-1.08 -5.28,-1.08 z"
     transform="translate(0,4.7412109e-6)"
     inkscape:connector-curvature="0" /><path
     id="path4244"
     style="font-style:normal;font-variant:normal;font-weight:normal;font-stretch:normal;font-size:60px;line-height:125%;font-family:'Adobe Garamond Pro';-inkscape-font-specification:'Adobe Garamond Pro';letter-spacing:0px;word-spacing:0px;display:inline;fill:#29568f;fill-opacity:1;stroke:none;stroke-width:1px;stroke-linecap:butt;stroke-linejoin:miter;stroke-opacity:1"
     d="m 358.08281,759.54382 c 0.54,-0.36 0.66,-1.98 -0.06,-2.52 h -6.66 c -1.02,0 -1.08,-0.06 -1.08,-1.14 v -2.7 c -0.24,-0.42 -0.96,-0.42 -1.26,-0.3 -0.6,1.2 -1.74,2.82 -2.52,3.54 -0.6,0.54 -2.1,1.32 -3.84,1.86 -0.24,0.36 -0.18,1.02 0.18,1.26 h 1.68 c 1.2,0 1.26,0.12 1.26,1.74 v 13.74 c 0,3.6 1.08,6.48 6.24,6.48 3.06,0 5.22,-1.5 6.3,-2.76 0.12,-0.36 -0.12,-1.02 -0.6,-1.02 -0.18,0 -0.96,0.66 -1.5,0.84 -0.48,0.18 -1.02,0.3 -1.62,0.3 -3.96,0 -4.38,-3.18 -4.38,-6.66 v -11.22 c 0,-1.26 0.06,-1.44 1.08,-1.44 z"
     transform="translate(0,4.7412109e-6)"
     inkscape:connector-curvature="0" /><path
     id="path4246"
     style="font-style:normal;font-variant:normal;font-weight:normal;font-stretch:normal;font-size:60px;line-height:125%;font-family:'Adobe Garamond Pro';-inkscape-font-specification:'Adobe Garamond Pro';letter-spacing:0px;word-spacing:0px;display:inline;fill:#29568f;fill-opacity:1;stroke:none;stroke-width:1px;stroke-linecap:butt;stroke-linejoin:miter;stroke-opacity:1"
     d="m 377.80125,765.30382 c 2.52,0 3.36,-0.06 3.54,-0.42 0.12,-0.24 0.24,-0.72 0.24,-1.56 0,-3.6 -3.36,-7.14 -8.52,-7.14 -7.2,0 -12.06,6.18 -12.06,13.56 0,2.64 0.72,5.46 2.52,7.8 1.74,2.28 4.8,3.96 8.7,3.96 3.12,0 7.44,-1.5 9.42,-5.58 -0.06,-0.54 -0.48,-0.9 -1.08,-0.72 -1.86,2.34 -3.54,2.94 -5.52,2.94 -6.42,0 -9.96,-5.16 -9.96,-11.22 0,-1.5 0.06,-1.62 1.62,-1.62 z m -11.64,-1.8 c -0.42,0 -0.42,-0.18 -0.42,-0.3 0.06,-1.98 3.12,-5.22 6.66,-5.22 3.48,0 4.62,2.1 4.62,3.78 0,0.78 -0.18,1.02 -0.36,1.14 -0.48,0.36 -1.8,0.6 -6.24,0.6 z"
     transform="translate(0,4.7412109e-6)"
     inkscape:connector-curvature="0" /><path
     id="path4248"
     style="font-style:normal;font-variant:normal;font-weight:normal;font-stretch:normal;font-size:60px;line-height:125%;font-family:'Adobe Garamond Pro';-inkscape-font-specification:'Adobe Garamond Pro';letter-spacing:0px;word-spacing:0px;display:inline;fill:#29568f;fill-opacity:1;stroke:none;stroke-width:1px;stroke-linecap:butt;stroke-linejoin:miter;stroke-opacity:1"
     d="m 388.57031,773.94382 c 0,4.32 -0.06,4.92 -2.28,5.22 l -1.26,0.18 c -0.42,0.3 -0.3,1.32 0.12,1.5 1.68,-0.12 3.48,-0.18 5.64,-0.18 2.1,0 3.84,0.06 5.46,0.18 0.42,-0.18 0.54,-1.2 0.12,-1.5 l -1.08,-0.18 c -2.16,-0.36 -2.28,-0.9 -2.28,-5.22 v -9.18 c 0,-1.74 0.12,-2.58 0.9,-3.6 0.84,-1.14 2.82,-2.1 5.1,-2.1 4.08,0 5.64,2.52 5.64,5.94 v 8.94 c 0,4.32 -0.06,4.86 -2.28,5.22 l -1.14,0.18 c -0.42,0.3 -0.3,1.32 0.12,1.5 1.62,-0.12 3.42,-0.18 5.58,-0.18 2.1,0 3.84,0.06 5.64,0.18 0.42,-0.18 0.54,-1.2 0.12,-1.5 l -1.32,-0.18 c -2.16,-0.3 -2.28,-0.9 -2.28,-5.22 v -10.32 c 0,-4.02 -2.04,-7.44 -7.02,-7.44 -3.06,0 -5.88,1.5 -8.4,3.06 -0.42,0 -0.66,-0.3 -0.66,-0.66 0,-0.54 0,-1.44 0.12,-2.82 -0.12,-0.3 -0.42,-0.42 -0.66,-0.42 -1.2,0.9 -4.62,2.46 -6,2.94 -0.3,0.18 -0.3,0.84 -0.06,1.08 l 0.54,0.36 c 1.62,1.08 1.62,1.38 1.62,3.72 z"
     transform="translate(0,4.7412109e-6)"
     inkscape:connector-curvature="0" /><path
     id="path4250"
     style="font-style:normal;font-variant:normal;font-weight:normal;font-stretch:normal;font-size:60px;line-height:125%;font-family:'Adobe Garamond Pro';-inkscape-font-specification:'Adobe Garamond Pro';letter-spacing:0px;word-spacing:0px;display:inline;fill:#29568f;fill-opacity:1;stroke:none;stroke-width:1px;stroke-linecap:butt;stroke-linejoin:miter;stroke-opacity:1"
     d="m 423.75375,761.82382 c 0,-2.94 0.06,-4.2 0.18,-5.22 -0.06,-0.24 -0.24,-0.36 -0.6,-0.42 -1.32,0.48 -3.66,1.02 -6.42,1.08 -0.42,0.18 -0.48,1.02 -0.12,1.32 l 0.72,0.3 c 1.8,0.78 1.8,1.32 1.8,5.1 v 10.02 c 0,4.86 1.98,7.5 7.26,7.5 3.54,0 6.48,-1.98 8.28,-3.12 0.36,0 0.54,0.3 0.54,0.84 v 2.46 c 0.12,0.24 0.42,0.42 0.72,0.42 2.04,-1.14 5.52,-1.74 7.86,-2.22 0.48,-0.24 0.42,-1.44 0.06,-1.74 -0.84,0.18 -1.62,0.3 -2.34,0.3 -1.68,0 -1.86,-1.8 -1.86,-6.54 v -10.08 c 0,-2.22 0.06,-4.08 0.18,-5.22 -0.06,-0.24 -0.24,-0.36 -0.54,-0.42 -1.32,0.6 -4.62,1.02 -7.02,1.08 -0.48,0.24 -0.48,1.08 -0.06,1.32 l 0.78,0.3 c 1.8,0.72 2.22,0.84 2.22,4.74 v 9.84 c 0,1.86 -0.42,2.76 -1.2,3.48 -1.32,1.14 -3.24,1.8 -4.86,1.8 -4.56,0 -5.58,-2.76 -5.58,-6.9 z"
     transform="translate(0,4.7412109e-6)"
     inkscape:connector-curvature="0" /><path
     id="path4252"
     style="font-style:normal;font-variant:normal;font-weight:normal;font-stretch:normal;font-size:60px;line-height:125%;font-family:'Adobe Garamond Pro';-inkscape-font-specification:'Adobe Garamond Pro';letter-spacing:0px;word-spacing:0px;display:inline;fill:#29568f;fill-opacity:1;stroke:none;stroke-width:1px;stroke-linecap:butt;stroke-linejoin:miter;stroke-opacity:1"
     d="m 450.79687,773.94382 c 0,4.32 -0.06,4.92 -2.28,5.22 l -1.26,0.18 c -0.42,0.3 -0.3,1.32 0.12,1.5 1.68,-0.12 3.48,-0.18 5.64,-0.18 2.1,0 3.84,0.06 5.46,0.18 0.42,-0.18 0.54,-1.2 0.12,-1.5 l -1.08,-0.18 c -2.16,-0.36 -2.28,-0.9 -2.28,-5.22 v -9.18 c 0,-1.74 0.12,-2.58 0.9,-3.6 0.84,-1.14 2.82,-2.1 5.1,-2.1 4.08,0 5.64,2.52 5.64,5.94 v 8.94 c 0,4.32 -0.06,4.86 -2.28,5.22 l -1.14,0.18 c -0.42,0.3 -0.3,1.32 0.12,1.5 1.62,-0.12 3.42,-0.18 5.58,-0.18 2.1,0 3.84,0.06 5.64,0.18 0.42,-0.18 0.54,-1.2 0.12,-1.5 l -1.32,-0.18 c -2.16,-0.3 -2.28,-0.9 -2.28,-5.22 v -10.32 c 0,-4.02 -2.04,-7.44 -7.02,-7.44 -3.06,0 -5.88,1.5 -8.4,3.06 -0.42,0 -0.66,-0.3 -0.66,-0.66 0,-0.54 0,-1.44 0.12,-2.82 -0.12,-0.3 -0.42,-0.42 -0.66,-0.42 -1.2,0.9 -4.62,2.46 -6,2.94 -0.3,0.18 -0.3,0.84 -0.06,1.08 l 0.54,0.36 c 1.62,1.08 1.62,1.38 1.62,3.72 z"
     transform="translate(0,4.7412109e-6)"
     inkscape:connector-curvature="0" /><path
     id="path4254"
     style="font-style:normal;font-variant:normal;font-weight:normal;font-stretch:normal;font-size:60px;line-height:125%;font-family:'Adobe Garamond Pro';-inkscape-font-specification:'Adobe Garamond Pro';letter-spacing:0px;word-spacing:0px;display:inline;fill:#29568f;fill-opacity:1;stroke:none;stroke-width:1px;stroke-linecap:butt;stroke-linejoin:miter;stroke-opacity:1"
     d="m 498.34031,758.34382 c -1.32,0 -1.74,-0.12 -3.66,-0.96 -1.38,-0.6 -3.48,-1.2 -5.76,-1.2 -5.34,0 -9.78,3.9 -9.78,9.06 0,3.84 2.46,6.18 4.5,7.26 0,0.3 -0.3,0.78 -0.6,1.14 -1.02,1.08 -2.16,2.1 -3.18,2.76 -0.66,0.48 -0.9,0.72 -0.9,1.02 0,2.1 2.04,4.14 4.38,4.74 0.54,0.36 0.06,0.9 -0.48,1.44 -1.38,1.38 -3.06,2.94 -4.08,4.02 -0.42,0.48 -0.66,1.26 -0.66,2.22 0,3 2.58,6.96 9.96,6.96 7.8,0 14.94,-4.8 14.94,-11.34 0,-6 -5.04,-6.6 -8.4,-6.6 -2.64,0 -5.1,0.18 -7.14,0.18 -2.82,0 -4.2,-1.14 -4.2,-2.52 0,-1.74 1.92,-2.88 2.64,-3.3 0.72,0.06 1.56,0.18 2.64,0.18 7.62,0 10.08,-5.4 10.08,-9.54 0,-1.02 0,-2.04 -0.12,-3.06 h 4.32 c 0.9,-0.12 1.02,-2.16 0.36,-2.46 z m -5.64,24.24 c 4.32,0 6.84,1.56 6.84,5.22 0,3.42 -3.54,6.42 -8.88,6.42 -5.46,0 -8.04,-2.7 -8.04,-5.94 0,-2.28 1.44,-4.14 2.88,-5.04 0.84,-0.54 3.24,-0.66 5.16,-0.66 z m -3.24,-10.92 c -2.88,0 -5.46,-2.76 -5.46,-7.02 0,-4.08 2.16,-6.72 5.04,-6.72 3.66,0 5.34,3.42 5.34,7.5 0,3.66 -1.68,6.24 -4.92,6.24 z"
     transform="translate(0,4.7412109e-6)"
     inkscape:connector-curvature="0" /><path
     id="path4256"
     style="font-style:normal;font-variant:normal;font-weight:normal;font-stretch:normal;font-size:60px;line-height:125%;font-family:'Adobe Garamond Pro';-inkscape-font-specification:'Adobe Garamond Pro';letter-spacing:0px;word-spacing:0px;display:inline;fill:#29568f;fill-opacity:1;stroke:none;stroke-width:1px;stroke-linecap:butt;stroke-linejoin:miter;stroke-opacity:1"
     d="m 514.31906,756.18382 c -4.56,0 -8.16,2.46 -8.16,6.84 0,3.3 2.46,5.4 5.94,7.38 2.22,1.26 4.62,2.76 4.62,5.52 0,2.58 -1.86,3.84 -4.02,3.84 -3.42,0 -5.34,-2.88 -6.36,-6.18 -0.3,-0.36 -1.08,-0.3 -1.38,0.06 -0.12,1.98 0.24,4.92 0.72,6.06 1.5,1.2 3.6,1.8 6.42,1.8 4.44,0 8.64,-2.28 8.64,-6.84 0,-4.26 -2.94,-6.3 -6.12,-8.1 -2.1,-1.2 -4.62,-2.52 -4.62,-4.98 0,-2.16 1.5,-3.66 3.84,-3.66 2.46,0 4.26,1.74 5.28,4.38 0.3,0.36 1.2,0.24 1.44,-0.18 0,-1.62 -0.42,-3.54 -0.96,-4.86 -0.54,-0.48 -2.76,-1.08 -5.28,-1.08 z"
     transform="translate(0,4.7412109e-6)"
     inkscape:connector-curvature="0" /><path
     id="path4258"
     style="font-style:normal;font-variant:normal;font-weight:normal;font-stretch:normal;font-size:60px;line-height:125%;font-family:'Adobe Garamond Pro';-inkscape-font-specification:'Adobe Garamond Pro';letter-spacing:0px;word-spacing:0px;display:inline;fill:#29568f;fill-opacity:1;stroke:none;stroke-width:1px;stroke-linecap:butt;stroke-linejoin:miter;stroke-opacity:1"
     d="m 532.035,761.82382 c 0,-2.94 0.06,-4.2 0.18,-5.22 -0.06,-0.24 -0.24,-0.36 -0.6,-0.42 -1.32,0.48 -3.66,1.02 -6.42,1.08 -0.42,0.18 -0.48,1.02 -0.12,1.32 l 0.72,0.3 c 1.8,0.78 1.8,1.32 1.8,5.1 v 10.02 c 0,4.86 1.98,7.5 7.26,7.5 3.54,0 6.48,-1.98 8.28,-3.12 0.36,0 0.54,0.3 0.54,0.84 v 2.46 c 0.12,0.24 0.42,0.42 0.72,0.42 2.04,-1.14 5.52,-1.74 7.86,-2.22 0.48,-0.24 0.42,-1.44 0.06,-1.74 -0.84,0.18 -1.62,0.3 -2.34,0.3 -1.68,0 -1.86,-1.8 -1.86,-6.54 v -10.08 c 0,-2.22 0.06,-4.08 0.18,-5.22 -0.06,-0.24 -0.24,-0.36 -0.54,-0.42 -1.32,0.6 -4.62,1.02 -7.02,1.08 -0.48,0.24 -0.48,1.08 -0.06,1.32 l 0.78,0.3 c 1.8,0.72 2.22,0.84 2.22,4.74 v 9.84 c 0,1.86 -0.42,2.76 -1.2,3.48 -1.32,1.14 -3.24,1.8 -4.86,1.8 -4.56,0 -5.58,-2.76 -5.58,-6.9 z"
     transform="translate(0,4.7412109e-6)"
     inkscape:connector-curvature="0" /><path
     id="path4260"
     style="font-style:normal;font-variant:normal;font-weight:normal;font-stretch:normal;font-size:60px;line-height:125%;font-family:'Adobe Garamond Pro';-inkscape-font-specification:'Adobe Garamond Pro';letter-spacing:0px;word-spacing:0px;display:inline;fill:#29568f;fill-opacity:1;stroke:none;stroke-width:1px;stroke-linecap:butt;stroke-linejoin:miter;stroke-opacity:1"
     d="m 559.07812,773.94382 c 0,4.32 -0.06,4.92 -2.28,5.22 l -1.26,0.18 c -0.42,0.3 -0.3,1.32 0.12,1.5 1.68,-0.12 3.48,-0.18 5.64,-0.18 2.1,0 3.84,0.06 5.46,0.18 0.42,-0.18 0.54,-1.2 0.12,-1.5 l -1.08,-0.18 c -2.16,-0.36 -2.28,-0.9 -2.28,-5.22 v -9.18 c 0,-1.74 0.12,-2.58 0.9,-3.6 0.84,-1.14 2.82,-2.1 5.1,-2.1 4.08,0 5.64,2.52 5.64,5.94 v 8.94 c 0,4.32 -0.06,4.86 -2.28,5.22 l -1.14,0.18 c -0.42,0.3 -0.3,1.32 0.12,1.5 1.62,-0.12 3.42,-0.18 5.58,-0.18 2.1,0 3.84,0.06 5.64,0.18 0.42,-0.18 0.54,-1.2 0.12,-1.5 l -1.32,-0.18 c -2.16,-0.3 -2.28,-0.9 -2.28,-5.22 v -10.32 c 0,-4.02 -2.04,-7.44 -7.02,-7.44 -3.06,0 -5.88,1.5 -8.4,3.06 -0.42,0 -0.66,-0.3 -0.66,-0.66 0,-0.54 0,-1.44 0.12,-2.82 -0.12,-0.3 -0.42,-0.42 -0.66,-0.42 -1.2,0.9 -4.62,2.46 -6,2.94 -0.3,0.18 -0.3,0.84 -0.06,1.08 l 0.54,0.36 c 1.62,1.08 1.62,1.38 1.62,3.72 z"
     transform="translate(0,4.7412109e-6)"
     inkscape:connector-curvature="0" /><path
     id="path4262"
     style="font-style:normal;font-variant:normal;font-weight:normal;font-stretch:normal;font-size:60px;line-height:125%;font-family:'Adobe Garamond Pro';-inkscape-font-specification:'Adobe Garamond Pro';letter-spacing:0px;word-spacing:0px;display:inline;fill:#29568f;fill-opacity:1;stroke:none;stroke-width:1px;stroke-linecap:butt;stroke-linejoin:miter;stroke-opacity:1"
     d="m 610.16156,745.56382 c 0,-2.64 0.12,-5.64 0.18,-7.44 -0.12,-0.24 -0.36,-0.36 -0.6,-0.36 -2.16,1.14 -4.98,2.04 -6.48,2.52 -0.3,0.18 -0.3,1.02 0,1.2 l 0.6,0.36 c 1.8,1.08 1.86,1.44 1.86,4.98 v 9.06 c 0,0.48 -0.06,0.84 -0.36,0.84 -0.66,-0.24 -1.98,-0.54 -4.02,-0.54 -8.16,0 -14.52,5.4 -14.52,13.8 0,6.3 4.44,11.52 11.1,11.52 2.88,0 4.92,-0.96 7.56,-2.76 h 0.24 c 0.12,0.24 0.12,0.96 0.12,1.86 v 1.02 c 0,0.3 0.3,0.48 0.66,0.48 1.68,-0.66 5.4,-1.56 7.92,-1.92 0.54,-0.3 0.48,-1.8 0.06,-1.92 -0.9,0.3 -1.92,0.6 -2.58,0.6 -1.68,0 -1.74,-2.22 -1.74,-6.96 z m -4.44,29.16 c 0,0.96 -0.06,1.86 -0.42,2.22 -0.96,0.96 -3,1.68 -4.62,1.68 -5.88,0 -8.94,-5.16 -8.94,-10.62 0,-5.22 2.82,-9.96 8.28,-9.96 2.34,0 4.14,1.26 5.04,2.52 0.42,0.6 0.66,1.14 0.66,2.34 z"
     transform="translate(0,4.7412109e-6)"
     inkscape:connector-curvature="0" /><g
     id="text3385"
     style="font-style:normal;font-weight:normal;font-size:40px;line-height:125%;font-family:sans-serif;letter-spacing:0px;word-spacing:0px;fill:#d39100;fill-opacity:1;stroke:none;stroke-width:1px;stroke-linecap:butt;stroke-linejoin:miter;stroke-opacity:1"><path
       id="path4265"
       style="font-style:normal;font-variant:normal;font-weight:normal;font-stretch:normal;font-size:60px;font-family:'Adobe Garamond Pro';-inkscape-font-specification:'Adobe Garamond Pro';fill:#d39100;fill-opacity:1"
       d="m 296.74687,759.54382 c 0.54,-0.36 0.66,-1.98 -0.06,-2.52 h -6.66 c -1.02,0 -1.08,-0.06 -1.08,-1.14 v -2.7 c -0.24,-0.42 -0.96,-0.42 -1.26,-0.3 -0.6,1.2 -1.74,2.82 -2.52,3.54 -0.6,0.54 -2.1,1.32 -3.84,1.86 -0.24,0.36 -0.18,1.02 0.18,1.26 h 1.68 c 1.2,0 1.26,0.12 1.26,1.74 v 13.74 c 0,3.6 1.08,6.48 6.24,6.48 3.06,0 5.22,-1.5 6.3,-2.76 0.12,-0.36 -0.12,-1.02 -0.6,-1.02 -0.18,0 -0.96,0.66 -1.5,0.84 -0.48,0.18 -1.02,0.3 -1.62,0.3 -3.96,0 -4.38,-3.18 -4.38,-6.66 v -11.22 c 0,-1.26 0.06,-1.44 1.08,-1.44 z"
       inkscape:connector-curvature="0" /><path
       id="path4267"
       style="font-style:normal;font-variant:normal;font-weight:normal;font-stretch:normal;font-size:60px;font-family:'Adobe Garamond Pro';-inkscape-font-specification:'Adobe Garamond Pro';fill:#d39100;fill-opacity:1"
       d="m 314.24531,756.18382 c -9.96,0 -14.52,6.9 -14.52,13.38 0,3.9 1.38,6.84 3.48,8.88 2.1,2.04 5.04,3.06 8.22,3.06 3.48,0 7.98,-1.68 10.02,-6.12 -0.06,-0.54 -0.6,-0.96 -1.08,-0.84 -1.38,2.04 -3.18,3.6 -6.66,3.6 -6.42,0 -9.66,-5.58 -9.66,-10.26 0,-6.36 4.08,-9.66 8.28,-9.66 2.46,0 4.68,1.56 6,3.18 0.24,0.3 0.54,0.42 0.84,0.42 0.72,0 1.32,-1.14 1.32,-2.22 0,-1.02 -0.42,-1.98 -0.9,-2.4 -1.62,-0.72 -3.96,-1.02 -5.34,-1.02 z"
       inkscape:connector-curvature="0" /></g><g
     id="text3386"
     style="font-style:normal;font-weight:normal;font-size:40px;line-height:125%;font-family:sans-serif;letter-spacing:0px;word-spacing:0px;fill:#29568f;fill-opacity:1;stroke:none;stroke-width:1px;stroke-linecap:butt;stroke-linejoin:miter;stroke-opacity:1"><path
       id="path4270"
       style="font-style:normal;font-variant:normal;font-weight:normal;font-stretch:normal;font-size:60px;font-family:'Adobe Garamond Pro';-inkscape-font-specification:'Adobe Garamond Pro';fill:#29568f;fill-opacity:1"
       d="m 260.28687,761.16382 c 1.32,0 2.28,0.84 2.58,1.74 -0.72,1.86 -4.2,7.2 -7.14,9.78 -2.88,2.58 -4.44,3.12 -4.8,3.12 -0.42,0 -0.72,-0.24 -0.72,-0.78 0,-3.24 2.94,-9.36 6.3,-12.06 1.56,-1.26 2.52,-1.8 3.78,-1.8 z m 3.96,-0.78 c -0.3,-0.84 -1.44,-1.32 -2.22,-1.32 -4.8,0 -9.12,4.02 -12,7.56 -3.54,4.32 -4.56,8.16 -4.56,9.24 0,1.38 0.78,2.7 2.46,2.7 2.46,0 7.74,-3.3 11.34,-7.02 l 0.12,0.06 -1.5,3.78 c -0.42,1.08 -0.48,1.56 -0.48,1.86 0,0.42 0.36,1.32 4.32,1.32 9.72,0 15.54,-6.78 15.54,-14.46 0,-8.04 -6.24,-15.6 -17.7,-15.6 -12.36,0 -23.7,8.88 -23.7,22.98 0,12.66 10.32,18.54 20.22,18.54 3.36,0 7.98,-0.78 11.58,-3.06 0.18,-0.48 -0.06,-0.96 -0.48,-1.14 -1.98,0.84 -4.98,2.1 -9.3,2.1 -13.74,0 -17.88,-9.42 -17.88,-16.5 0,-11.04 7.14,-20.88 19.02,-20.88 8.82,0 15.66,5.34 15.66,13.8 0,7.56 -5.34,12 -11.7,12.24 -1.56,0.06 -1.92,-0.54 -1.38,-1.92 0.96,-2.58 6.24,-14.82 7.02,-16.62 -0.54,-0.6 -1.92,-1.08 -2.88,-0.72 z"
       inkscape:connector-curvature="0" /></g></g></g><g
     inkscape:groupmode="layer"
     id="layer2"
     inkscape:label="Layer 2"
     style="display:none"
     transform="translate(-229.74985,-737.76382)" /></svg>