<?xml version="1.0" encoding="UTF-8" standalone="no"?>
<svg
   version="1.1"
   width="1522"
   height="1975"
   id="svg46"
   sodipodi:docname="Logotyp_text_vit.svg"
   inkscape:version="1.2.2 (b0a8486541, 2022-12-01)"
   xmlns:inkscape="http://www.inkscape.org/namespaces/inkscape"
   xmlns:sodipodi="http://sodipodi.sourceforge.net/DTD/sodipodi-0.dtd"
   xmlns="http://www.w3.org/2000/svg"
   xmlns:svg="http://www.w3.org/2000/svg">
  <defs
     id="defs50" />
  <sodipodi:namedview
     id="namedview48"
     pagecolor="#ffffff"
     bordercolor="#666666"
     borderopacity="1.0"
     inkscape:showpageshadow="2"
     inkscape:pageopacity="0.0"
     inkscape:pagecheckerboard="0"
     inkscape:deskcolor="#d1d1d1"
     showgrid="false"
     inkscape:zoom="0.53316456"
     inkscape:cx="761.49098"
     inkscape:cy="987.5"
     inkscape:window-width="2560"
     inkscape:window-height="1412"
     inkscape:window-x="2560"
     inkscape:window-y="0"
     inkscape:window-maximized="1"
     inkscape:current-layer="svg46" />
  <path
     d="M0 0 C45.92059482 -0.18830512 91.84122596 -0.36343151 137.76210022 -0.46577454 C138.44176094 -0.46729316 139.12142166 -0.46881179 139.82167816 -0.47037644 C154.59259686 -0.50329855 169.36351966 -0.53377054 184.13444858 -0.56171862 C191.37812614 -0.57543931 198.62180258 -0.5897014 205.86547852 -0.60424805 C206.5863107 -0.6056864 207.30714289 -0.60712475 208.04981848 -0.60860668 C231.41344108 -0.65548025 254.776771 -0.73810331 278.14021629 -0.83926943 C302.14955855 -0.9430435 326.15873884 -1.01074334 350.16830158 -1.03306489 C353.55959997 -1.03623459 356.95089781 -1.03981659 360.34219551 -1.04364967 C361.34337782 -1.04476215 361.34337782 -1.04476215 362.36478604 -1.04589711 C372.44300196 -1.0580903 382.52076914 -1.10198703 392.59879875 -1.16303062 C404.06551462 -1.23223435 415.53156966 -1.26469118 426.99849676 -1.24851515 C432.85118342 -1.24145821 438.7024004 -1.25239239 444.55482674 -1.31126022 C449.9130539 -1.36476405 455.26882254 -1.36751882 460.62716252 -1.32988784 C462.56544813 -1.3252369 464.50388666 -1.33922248 466.44187092 -1.37371501 C480.93656322 -1.61669462 480.93656322 -1.61669462 486.08004677 2.41320455 C488.35814304 5.17262904 490.18368025 7.9246244 492 11 C493.02788018 12.20743271 494.08247843 13.39399068 495.1875 14.53125 C495.65357666 15.02568604 496.11965332 15.52012207 496.59985352 16.02954102 C497.06190186 16.51479248 497.5239502 17.00004395 498 17.5 C502.46258552 22.25711758 506.63826412 27.16503433 510.72265625 32.25390625 C513.2182639 35.26318958 515.83763481 38.13940286 518.5 41 C521.95161936 44.70861688 525.26522148 48.48505895 528.4375 52.4375 C532.28110057 57.21621628 536.36960164 61.69157687 540.55834961 66.16381836 C544.4599667 70.35329526 548.07324797 74.72172936 551.65625 79.1875 C554.33208171 82.39849805 557.14358276 85.45029137 560 88.5 C564.43832674 93.23866464 568.5914225 98.12119326 572.65625 103.1875 C575.33208171 106.39849805 578.14358276 109.45029137 581 112.5 C585.43832674 117.23866464 589.5914225 122.12119326 593.65625 127.1875 C596.33208278 130.39849934 599.14359707 133.45027636 602 136.5 C606.45874444 141.26088994 610.6379783 146.1646782 614.72265625 151.25390625 C617.2182639 154.26318958 619.83763481 157.13940286 622.5 160 C625.95161936 163.70861688 629.26522148 167.48505895 632.4375 171.4375 C636.28110057 176.21621628 640.36960164 180.69157687 644.55834961 185.16381836 C648.4599667 189.35329526 652.07324797 193.72172936 655.65625 198.1875 C658.33208171 201.39849805 661.14358276 204.45029137 664 207.5 C668.43832674 212.23866464 672.5914225 217.12119326 676.65625 222.1875 C679.33208171 225.39849805 682.14358276 228.45029137 685 231.5 C689.43832674 236.23866464 693.5914225 241.12119326 697.65625 246.1875 C700.33208278 249.39849934 703.14359707 252.45027636 706 255.5 C710.45874444 260.26088994 714.6379783 265.1646782 718.72265625 270.25390625 C721.2182639 273.26318958 723.83763481 276.13940286 726.5 279 C729.95161936 282.70861688 733.26522148 286.48505895 736.4375 290.4375 C740.28110057 295.21621628 744.36960164 299.69157687 748.55834961 304.16381836 C752.4599667 308.35329526 756.07324797 312.72172936 759.65625 317.1875 C762.33208171 320.39849805 765.14358276 323.45029137 768 326.5 C772.43832674 331.23866464 776.5914225 336.12119326 780.65625 341.1875 C783.33208278 344.39849934 786.14359707 347.45027636 789 350.5 C793.45874444 355.26088994 797.6379783 360.1646782 801.72265625 365.25390625 C804.2182639 368.26318958 806.83763481 371.13940286 809.5 374 C812.95161936 377.70861688 816.26522148 381.48505895 819.4375 385.4375 C823.28110057 390.21621628 827.36960164 394.69157687 831.55834961 399.16381836 C835.4599667 403.35329526 839.07324797 407.72172936 842.65625 412.1875 C845.33208171 415.39849805 848.14358276 418.45029137 851 421.5 C855.43832674 426.23866464 859.5914225 431.12119326 863.65625 436.1875 C866.33208171 439.39849805 869.14358276 442.45029137 872 445.5 C876.43832674 450.23866464 880.5914225 455.12119326 884.65625 460.1875 C887.33208278 463.39849934 890.14359707 466.45027636 893 469.5 C897.45874444 474.26088994 901.6379783 479.1646782 905.72265625 484.25390625 C908.2182639 487.26318958 910.83763481 490.13940286 913.5 493 C916.95161936 496.70861688 920.26522148 500.48505895 923.4375 504.4375 C927.28110057 509.21621628 931.36960164 513.69157687 935.55834961 518.16381836 C939.4599667 522.35329526 943.07324797 526.72172936 946.65625 531.1875 C949.33208171 534.39849805 952.14358276 537.45029137 955 540.5 C959.43832674 545.23866464 963.5914225 550.12119326 967.65625 555.1875 C970.33208171 558.39849805 973.14358276 561.45029137 976 564.5 C980.43832674 569.23866464 984.5914225 574.12119326 988.65625 579.1875 C991.33208278 582.39849934 994.14359707 585.45027636 997 588.5 C1001.45874444 593.26088994 1005.6379783 598.1646782 1009.72265625 603.25390625 C1012.2182639 606.26318958 1014.83763481 609.13940286 1017.5 612 C1020.95161936 615.70861688 1024.26522148 619.48505895 1027.4375 623.4375 C1030.8034686 627.62238046 1034.33181453 631.58308496 1038 635.5 C1042.43398357 640.23577669 1046.63644388 645.08657562 1050.671875 650.171875 C1052.81268011 652.93065025 1052.81268011 652.93065025 1054.94353437 654.69303793 C1059.73100844 659.16920321 1061.55401511 662.53746652 1061.98438263 669.12011814 C1062.04675559 671.9819916 1062.00868282 674.8365116 1061.96203613 677.69837952 C1061.96552815 679.29420627 1061.97253908 680.89002852 1061.98274946 682.48582643 C1062.00058783 686.85569071 1061.96871187 691.22397819 1061.92852497 695.59364164 C1061.89391273 700.31131713 1061.90567276 705.0289068 1061.91174316 709.74667358 C1061.91593397 717.91532958 1061.8908769 726.08347359 1061.84584045 734.25200081 C1061.78076862 746.0621655 1061.75998328 757.87208314 1061.74993652 769.68240767 C1061.73243612 788.84464577 1061.67922014 808.00661113 1061.60351562 827.16870117 C1061.53006106 845.78066648 1061.47344465 864.39255764 1061.43945312 883.00463867 C1061.43735134 884.15226746 1061.43524955 885.29989624 1061.43308407 886.48230166 C1061.42264362 892.23973292 1061.41253399 897.9971647 1061.40258884 903.75459683 C1061.31968193 951.50325304 1061.17880024 999.2516132 1061 1047 C1015.32662991 1047.25684739 969.65318743 1047.49564728 923.97929382 1047.63514709 C923.30300481 1047.63721795 922.62671579 1047.63928881 921.92993317 1047.64142242 C907.23135681 1047.68631897 892.53277277 1047.72787128 877.83417727 1047.76597994 C870.62569656 1047.78468953 863.41721793 1047.8041379 856.20874023 1047.82397461 C855.49142077 1047.825936 854.7741013 1047.82789738 854.03504488 1047.8299182 C830.79624836 1047.8938068 807.55799993 1048.0064517 784.31953529 1048.14445831 C760.43333686 1048.28605354 736.5474416 1048.37830592 712.66083058 1048.40872485 C709.28486943 1048.41304699 705.90890931 1048.41793154 702.53294945 1048.42315865 C701.53632112 1048.42467566 701.53632112 1048.42467566 700.5195589 1048.42622333 C689.17719986 1048.44502219 677.83597153 1048.5248079 666.49400701 1048.618747 C656.40511271 1048.69805006 646.31703168 1048.72199917 636.22784833 1048.70252066 C630.40656761 1048.69291366 624.58803584 1048.70761143 618.76724434 1048.78808212 C613.43280506 1048.86128942 608.10295156 1048.86465154 602.76829746 1048.81348342 C600.84335631 1048.80716429 598.9181247 1048.82603897 596.99375216 1048.87324774 C581.92282289 1049.22133886 581.92282289 1049.22133886 576.1029762 1043.78826821 C573.24274152 1040.702118 570.77252126 1037.40814759 568.38798418 1033.9464137 C566.11681377 1030.76148028 563.52166807 1027.86902509 560.9375 1024.9375 C559.9448957 1023.78142152 558.95380242 1022.62404239 557.96484375 1021.46484375 C554.97875854 1017.97467822 551.98960842 1014.48714768 549 1011 C547.9999866 1009.83334482 546.99998659 1008.66667816 546 1007.5 C545.505 1006.9225 545.01 1006.345 544.5 1005.75 C519 976 493.5 946.25 468 916.5 C467.5047583 915.9222583 467.0095166 915.3445166 466.49926758 914.74926758 C465.50154805 913.58518023 464.50398886 912.42095544 463.5065918 911.2565918 C460.97301257 908.29930113 458.43649863 905.34461631 455.89453125 902.39453125 C451.30393447 897.06164678 446.74238602 891.71814055 442.3125 886.25 C438.76254679 881.87492253 435.04436179 877.69450808 431.25 873.53125 C428.13067124 870.02200514 425.20250867 866.36837877 422.25 862.71875 C420.06498431 860.07852271 417.80828609 857.5327028 415.5 855 C411.58108748 850.70008209 407.90829131 846.24080453 404.25 841.71875 C402.06498431 839.07852271 399.80828609 836.5327028 397.5 834 C393.58108748 829.70008209 389.90829131 825.24080453 386.25 820.71875 C384.06498431 818.07852271 381.80828609 815.5327028 379.5 813 C375.58108748 808.70008209 371.90829131 804.24080453 368.25 799.71875 C366.06498431 797.07852271 363.80828609 794.5327028 361.5 792 C357.58108748 787.70008209 353.90829131 783.24080453 350.25 778.71875 C348.06498431 776.07852271 345.80828609 773.5327028 343.5 771 C340.47717579 767.68010514 337.57487839 764.30235888 334.75 760.8125 C329.53481485 754.37288007 324.08668248 748.14544597 318.64648438 741.89648438 C316.06362591 738.92144811 313.49943086 735.9305594 310.9375 732.9375 C310.44660889 732.36410889 309.95571777 731.79071777 309.44995117 731.19995117 C308.46114797 730.04469482 307.47245951 728.88934024 306.48388672 727.73388672 C303.99104476 724.82105954 301.49537234 721.91065939 299 719 C297.9999866 717.83334482 296.99998659 716.66667816 296 715.5 C295.505 714.9225 295.01 714.345 294.5 713.75 C269 684 243.5 654.25 218 624.5 C217.5047583 623.9222583 217.0095166 623.3445166 216.49926758 622.74926758 C215.50154805 621.58518023 214.50398886 620.42095544 213.5065918 619.2565918 C210.97301257 616.29930113 208.43649863 613.34461631 205.89453125 610.39453125 C201.30393447 605.06164678 196.74238602 599.71814055 192.3125 594.25 C188.76254679 589.87492253 185.04436179 585.69450808 181.25 581.53125 C178.13067124 578.02200514 175.20250867 574.36837877 172.25 570.71875 C170.06498431 568.07852271 167.80828609 565.5327028 165.5 563 C161.58108748 558.70008209 157.90829131 554.24080453 154.25 549.71875 C152.06498431 547.07852271 149.80828609 544.5327028 147.5 542 C143.58108748 537.70008209 139.90829131 533.24080453 136.25 528.71875 C134.06498431 526.07852271 131.80828609 523.5327028 129.5 521 C125.58108748 516.70008209 121.90829131 512.24080453 118.25 507.71875 C116.06498431 505.07852271 113.80828609 502.5327028 111.5 500 C107.58108748 495.70008209 103.90829131 491.24080453 100.25 486.71875 C98.06498431 484.07852271 95.80828609 481.5327028 93.5 479 C90.47717579 475.68010514 87.57487839 472.30235888 84.75 468.8125 C79.53481485 462.37288007 74.08668248 456.14544597 68.64648438 449.89648438 C66.06362591 446.92144811 63.49943086 443.9305594 60.9375 440.9375 C60.44660889 440.36410889 59.95571777 439.79071777 59.44995117 439.19995117 C58.46114797 438.04469482 57.47245951 436.88934024 56.48388672 435.73388672 C53.99104476 432.82105954 51.49537234 429.91065939 49 427 C47.9999866 425.83334482 46.99998659 424.66667816 46 423.5 C45.2575 422.63375 45.2575 422.63375 44.5 421.75 C28 402.5 28 402.5 26.4987793 400.74853516 C25.50290197 399.58670531 24.50697133 398.42492114 23.51098633 397.26318359 C20.94746128 394.27289394 18.3849836 391.28171637 15.82421875 388.2890625 C15.0362793 387.36867188 15.0362793 387.36867188 14.23242188 386.4296875 C13.24508972 385.27634375 12.25807861 384.12272505 11.27148438 382.96875 C10.81451172 382.43507813 10.35753906 381.90140625 9.88671875 381.3515625 C9.45667292 380.83267346 9.02662708 380.31378442 8.58354956 379.77917147 C7.03785199 377.96620973 7.03785199 377.96620973 5.21643776 376.45034742 C0.85026463 372.37411182 -0.49889102 369.20584454 -0.8613348 363.23719025 C-0.89075941 360.48251947 -0.88258011 357.74431408 -0.84178162 354.99133301 C-0.84483657 353.45824357 -0.85097011 351.92515771 -0.85990578 350.39209127 C-0.87552483 346.19111248 -0.84760733 341.99138788 -0.81245935 337.79056883 C-0.78218936 333.2562443 -0.79246257 328.72198872 -0.79777527 324.18759155 C-0.8014432 316.33544702 -0.77950782 308.4837101 -0.7401104 300.63166809 C-0.68318604 289.27904963 -0.66498672 277.92662799 -0.65619446 266.57388228 C-0.64087951 248.15428639 -0.59430978 229.73490768 -0.52807617 211.31542969 C-0.46380889 193.42416469 -0.41426683 175.53295871 -0.38452148 157.64160156 C-0.38268242 156.53851499 -0.38084336 155.43542841 -0.37894856 154.29891497 C-0.3698132 148.76497405 -0.36096727 143.23103272 -0.35226524 137.6970911 C-0.27971516 91.79791032 -0.15643791 45.89896637 0 0 Z "
     fill="#FFFFFF"
     transform="translate(230,230)"
     id="path2"
     style="fill:#000000" />
  <path
     d="M0 0 C3.76478859 1.25492953 4.69380667 2.83097519 7.125 5.9375 C10.15073542 9.7319093 13.22397726 13.41936462 16.5 17 C19.52282421 20.31989486 22.42512161 23.69764112 25.25 27.1875 C30.46386438 33.62548906 35.91041253 39.85163566 41.34912109 46.09912109 C48.25089085 54.04605682 55.06687286 62.06677899 61.8581543 70.1081543 C67.20486451 76.43447289 72.60347353 82.71618337 78 89 C84.31088314 96.34851068 90.6080438 103.70740317 96.85791016 111.10791016 C102.20478107 117.43424365 107.60339832 123.71609579 113 130 C119.31088314 137.34851068 125.6080438 144.70740317 131.85791016 152.10791016 C137.20478107 158.43424365 142.60339832 164.71609579 148 171 C154.31088314 178.34851068 160.6080438 185.70740317 166.85791016 193.10791016 C172.20478107 199.43424365 177.60339832 205.71609579 183 212 C189.31088314 219.34851068 195.6080438 226.70740317 201.85791016 234.10791016 C207.20478107 240.43424365 212.60339832 246.71609579 218 253 C224.31088314 260.34851068 230.6080438 267.70740317 236.85791016 275.10791016 C242.20478107 281.43424365 247.60339832 287.71609579 253 294 C259.31088314 301.34851068 265.6080438 308.70740317 271.85791016 316.10791016 C277.20478107 322.43424365 282.60339832 328.71609579 288 335 C294.31088314 342.34851068 300.6080438 349.70740317 306.85791016 357.10791016 C312.20478107 363.43424365 317.60339832 369.71609579 323 376 C329.31088314 383.34851068 335.6080438 390.70740317 341.85791016 398.10791016 C347.20478107 404.43424365 352.60339832 410.71609579 358 417 C364.31088314 424.34851068 370.6080438 431.70740317 376.85791016 439.10791016 C382.20478107 445.43424365 387.60339832 451.71609579 393 458 C399.31088314 465.34851068 405.6080438 472.70740317 411.85791016 480.10791016 C417.20478107 486.43424365 422.60339832 492.71609579 428 499 C434.77534806 506.88934235 441.5361031 514.7899222 448.2421875 522.73828125 C450.19772485 525.05509105 452.16275269 527.36349645 454.1328125 529.66796875 C454.89936157 530.56696899 454.89936157 530.56696899 455.68139648 531.48413086 C456.66855363 532.64154821 457.65758406 533.79737106 458.64868164 534.95141602 C462 538.8876024 462 538.8876024 462 540 C309.54 540 157.08 540 0 540 C0 361.8 0 183.6 0 0 Z "
     fill="#FFFFFF"
     transform="translate(230,737)"
     id="path4"
     style="fill:#000000" />
  <path
     d="M0 0 C152.46 0 304.92 0 462 0 C462 175.89 462 351.78 462 533 C454.28636352 525.28636352 447.12889281 517.23721926 440.28125 508.75 C437.13805742 504.96094593 433.79841405 501.36730648 430.46484375 497.74609375 C428.07292703 495.08124834 425.80745116 492.35168175 423.5625 489.5625 C419.90428985 485.02683557 416.05257035 480.7429883 412.08618164 476.48071289 C408.30509442 472.39338994 404.80310034 468.11956756 401.3125 463.78125 C398.80028867 460.75980664 396.17597543 457.87559922 393.5 455 C389.2104224 450.38998361 385.19589103 445.62216764 381.24609375 440.71484375 C378.9116941 437.89326505 376.48009402 435.19409288 374 432.5 C370.72581577 428.94329756 367.59357567 425.32838189 364.5625 421.5625 C360.90428985 417.02683557 357.05257035 412.7429883 353.08618164 408.48071289 C349.30509442 404.39338994 345.80310034 400.11956756 342.3125 395.78125 C339.80028867 392.75980664 337.17597543 389.87559922 334.5 387 C330.2104224 382.38998361 326.19589103 377.62216764 322.24609375 372.71484375 C319.9116941 369.89326505 317.48009402 367.19409288 315 364.5 C311.72581577 360.94329756 308.59357567 357.32838189 305.5625 353.5625 C301.90428985 349.02683557 298.05257035 344.7429883 294.08618164 340.48071289 C290.30509442 336.39338994 286.80310034 332.11956756 283.3125 327.78125 C280.80028867 324.75980664 278.17597543 321.87559922 275.5 319 C271.2104224 314.38998361 267.19589103 309.62216764 263.24609375 304.71484375 C260.9116941 301.89326505 258.48009402 299.19409288 256 296.5 C252.72581577 292.94329756 249.59357567 289.32838189 246.5625 285.5625 C242.90428985 281.02683557 239.05257035 276.7429883 235.08618164 272.48071289 C231.30509442 268.39338994 227.80310034 264.11956756 224.3125 259.78125 C221.80028867 256.75980664 219.17597543 253.87559922 216.5 251 C212.2104224 246.38998361 208.19589103 241.62216764 204.24609375 236.71484375 C201.9116941 233.89326505 199.48009402 231.19409288 197 228.5 C193.72581577 224.94329756 190.59357567 221.32838189 187.5625 217.5625 C183.90428985 213.02683557 180.05257035 208.7429883 176.08618164 204.48071289 C172.30509442 200.39338994 168.80310034 196.11956756 165.3125 191.78125 C162.80028867 188.75980664 160.17597543 185.87559922 157.5 183 C153.2104224 178.38998361 149.19589103 173.62216764 145.24609375 168.71484375 C142.9116941 165.89326505 140.48009402 163.19409288 138 160.5 C134.72581577 156.94329756 131.59357567 153.32838189 128.5625 149.5625 C124.90428985 145.02683557 121.05257035 140.7429883 117.08618164 136.48071289 C113.30509442 132.39338994 109.80310034 128.11956756 106.3125 123.78125 C103.80028867 120.75980664 101.17597543 117.87559922 98.5 115 C94.2104224 110.38998361 90.19589103 105.62216764 86.24609375 100.71484375 C83.9116941 97.89326505 81.48009402 95.19409288 79 92.5 C75.72581577 88.94329756 72.59357567 85.32838189 69.5625 81.5625 C65.90428985 77.02683557 62.05257035 72.7429883 58.08618164 68.48071289 C54.30509442 64.39338994 50.80310034 60.11956756 47.3125 55.78125 C44.80028867 52.75980664 42.17597543 49.87559922 39.5 47 C35.2104224 42.38998361 31.19589103 37.62216764 27.24609375 32.71484375 C24.9116941 29.89326505 22.48009402 27.19409288 20 24.5 C15.83712281 19.97513349 11.91028899 15.30840447 8.05078125 10.5234375 C6.2188082 8.26923828 4.34564355 6.06467293 2.4375 3.875 C0 1 0 1 0 0 Z "
     fill="#FFFFFF"
     transform="translate(829,230)"
     id="path6"
     style="fill:#000000" />
  <path
     d="M0 0 C15.51 0 31.02 0 47 0 C60.88327526 16.01916376 60.88327526 16.01916376 66.69140625 23.19140625 C69.41344185 26.50298593 72.20143139 29.7531 75 33 C79.31581614 38.00894596 83.54526411 43.0757983 87.7109375 48.2109375 C90.76263536 51.92921783 93.88096531 55.58964214 97.01977539 59.23461914 C100.55725309 63.37591111 103.71068631 67.61424841 107 72 C107.33 48.24 107.66 24.48 108 0 C126.15 0 144.3 0 163 0 C163 54.45 163 108.9 163 165 C147.49 165 131.98 165 116 165 C103.13488372 149.99069767 103.13488372 149.99069767 97.27734375 142.77734375 C94.71795946 139.65603633 92.11406209 136.5754997 89.5 133.5 C85.38010546 128.65185205 81.33203905 123.75153995 77.31640625 118.81640625 C73.88568712 114.6451609 70.37925048 110.53979242 66.87109375 106.43359375 C63.17594936 102.0145027 59.59850689 97.49813361 56 93 C55.67 116.76 55.34 140.52 55 165 C36.85 165 18.7 165 0 165 C0 110.55 0 56.1 0 0 Z "
     fill="#FFFFFF"
     transform="translate(230,1440)"
     id="path8"
     style="fill:#000000" />
  <path
     d="M0 0 C15.51 0 31.02 0 47 0 C52.93508065 7.01418623 58.82771717 14.00114793 64.62109375 21.12109375 C67.37251852 24.4508147 70.18069504 27.72776622 73 31 C77.3169033 36.01042526 81.54716181 41.07898887 85.71484375 46.21484375 C88.73865101 49.90027038 91.82601329 53.53027103 94.93188477 57.14672852 C98.78450455 61.66191463 102.34156845 66.2963023 106 71 C106.33 47.57 106.66 24.14 107 0 C125.15 0 143.3 0 162 0 C162 54.45 162 108.9 162 165 C146.82 165 131.64 165 116 165 C105.94824708 153.83138564 105.94824708 153.83138564 102.625 149.6875 C99.29982081 145.58026647 95.92342443 141.52511721 92.5 137.5 C89.14539595 133.55361117 85.82777828 129.58357507 82.5625 125.5625 C78.61279925 120.7083955 74.55128135 115.95971373 70.46582031 111.22021484 C66.44576956 106.54654991 62.52554602 101.80180004 58.64453125 97.01171875 C57.15704175 95.12373351 57.15704175 95.12373351 56 94 C55.67 117.43 55.34 140.86 55 165 C36.85 165 18.7 165 0 165 C0 110.55 0 56.1 0 0 Z "
     fill="#FFFFFF"
     transform="translate(770,1440)"
     id="path10"
     style="fill:#000000" />
  <path
     d="M0 0 C25.6817469 -0.73246166 50.86042496 5.7285065 70.3515625 23.15625 C71.18429687 23.89488281 72.01703125 24.63351562 72.875 25.39453125 C86.84029927 38.52191256 96.25098401 56.88407145 97.55493164 76.16308594 C97.65498395 79.41390826 97.68048344 82.65395109 97.6640625 85.90625 C97.65669067 87.62932373 97.65669067 87.62932373 97.64916992 89.38720703 C97.32496308 112.87308348 88.05534889 132.80094316 71.3515625 149.15625 C53.32124974 166.04317707 29.29734434 172.57794674 5.1015625 172.46875 C3.81757568 172.46383545 2.53358887 172.4589209 1.21069336 172.45385742 C-7.78115682 172.34259333 -15.99854262 171.77453926 -24.6484375 169.15625 C-26.35 168.66318359 -26.35 168.66318359 -28.0859375 168.16015625 C-50.26356476 161.00688138 -68.76353441 146.74555288 -79.55493164 125.83984375 C-89.21499378 105.88977201 -91.25074241 81.82209615 -84.8359375 60.55078125 C-84.4440625 59.43058594 -84.0521875 58.31039063 -83.6484375 57.15625 C-83.2978125 56.10824219 -82.9471875 55.06023437 -82.5859375 53.98046875 C-74.59425223 32.5860613 -57.16787623 17.18293377 -36.8359375 7.84375 C-25.09009822 3.08192326 -12.63316087 0.54103473 0 0 Z M-22.33203125 58.19140625 C-29.86565337 68.84368491 -33.01470793 80.4649928 -31.1875 93.42578125 C-28.88287627 105.93853244 -24.04218221 114.64290867 -13.6484375 122.15625 C-5.78243971 127.1539834 3.93421288 128.15688348 13.0390625 126.59375 C23.19647988 123.76604406 31.3485634 116.94705204 36.6640625 107.9296875 C42.02988483 96.76404251 42.99639362 83.98475855 39.3515625 72.15625 C34.60241113 60.98177618 29.23113161 53.52271701 18.22265625 48.109375 C4.16188463 42.61971831 -12.66783134 46.50915995 -22.33203125 58.19140625 Z "
     fill="#FFFFFF"
     transform="translate(499.6484375,1435.84375)"
     id="path12"
     style="fill:#000000" />
  <path
     d="M0 0 C0.97484848 0.00222061 1.94969696 0.00444122 2.9540863 0.00672913 C4.05515213 0.00680466 5.15621796 0.00688019 6.29064941 0.00695801 C7.48854599 0.01211929 8.68644257 0.01728058 9.92063904 0.02259827 C11.14000656 0.02401321 12.35937408 0.02542816 13.61569214 0.02688599 C17.52856349 0.03250485 21.4413786 0.04506055 25.35423279 0.05775452 C27.99941426 0.06276709 30.64459662 0.06733041 33.28977966 0.07142639 C39.79045005 0.08248041 46.2910874 0.09923688 52.79173279 0.12025452 C57.3844858 9.10041757 61.65104126 18.14844993 65.60423279 27.43275452 C66.73869131 30.07695701 67.87656532 32.71968616 69.01438904 35.36244202 C69.31364288 36.05843002 69.61289673 36.75441803 69.92121887 37.47149658 C73.37111958 45.48579679 76.88487255 53.47193904 80.39830017 61.45854187 C87.43913453 77.4635302 94.4528074 93.48012843 101.42918396 109.51332092 C102.12292896 111.10756846 102.81669529 112.70180672 103.51048279 114.29603577 C103.85448624 115.08655334 104.19848969 115.87707092 104.55291748 116.69154358 C106.83063754 121.92237849 109.11805094 127.1488904 111.41101074 132.37306213 C113.00894638 136.01422153 114.60426148 139.65652643 116.19941711 143.29890442 C116.96497816 145.04496058 117.73182984 146.79045147 118.50001526 148.53535461 C119.56016802 150.94374291 120.6158824 153.35403043 121.67063904 155.76478577 C122.14739075 156.84302864 122.14739075 156.84302864 122.6337738 157.9430542 C124.79173279 162.89251569 124.79173279 162.89251569 124.79173279 165.12025452 C105.65173279 165.12025452 86.51173279 165.12025452 66.79173279 165.12025452 C63.82839086 158.60090228 60.94781053 152.24701399 58.47923279 145.55775452 C58.21561951 144.86101624 57.95200623 144.16427795 57.68040466 143.44642639 C55.79173279 138.378899 55.79173279 138.378899 55.79173279 136.12025452 C35.33173279 136.12025452 14.87173279 136.12025452 -6.20826721 136.12025452 C-6.53826721 137.77025452 -6.86826721 139.42025452 -7.20826721 141.12025452 C-10.17826721 149.04025452 -13.14826721 156.96025452 -16.20826721 165.12025452 C-35.34826721 165.12025452 -54.48826721 165.12025452 -74.20826721 165.12025452 C-68.58794929 150.50742791 -68.58794929 150.50742791 -66.03639221 144.78431702 C-65.61751991 143.84033806 -65.61751991 143.84033806 -65.19018555 142.87728882 C-64.5929359 141.53196829 -63.99431873 140.1872541 -63.39439392 138.84312439 C-61.73286315 135.11961634 -60.08267963 131.391075 -58.43092346 127.66322327 C-57.91191216 126.49289299 -57.91191216 126.49289299 -57.38241577 125.29891968 C-53.51412739 116.56902578 -49.70431522 107.81383288 -45.89576721 99.05775452 C-39.63658 84.67277188 -33.34136049 70.30402477 -27.02357483 55.94468689 C-22.83612975 46.4250103 -18.66970325 36.89690242 -14.55201721 27.34681702 C-14.17807327 26.47979156 -13.80412933 25.61276611 -13.41885376 24.71946716 C-11.63179907 20.57395905 -9.84822575 16.42699406 -8.0693512 12.27796936 C-7.43731254 10.80871326 -6.80523476 9.33947399 -6.17311096 7.87025452 C-5.88548889 7.19636688 -5.59786682 6.52247925 -5.30152893 5.82817078 C-2.85691885 0.15557782 -2.85691885 0.15557782 0 0 Z M24.79173279 57.12025452 C20.87651439 65.35433293 17.59597019 73.74370835 14.47923279 82.30775452 C12.93235779 86.53587952 11.38548279 90.76400452 9.79173279 95.12025452 C19.69173279 95.12025452 29.59173279 95.12025452 39.79173279 95.12025452 C35.35373888 82.36102202 30.65088986 69.7247372 25.79173279 57.12025452 C25.46173279 57.12025452 25.13173279 57.12025452 24.79173279 57.12025452 Z "
     fill="#FFFFFF"
     transform="translate(1016.2082672119141,1439.8797454833984)"
     id="path14"
     style="fill:#000000" />
  <path
     d="M0 0 C-2.72475777 8.72512687 -6.2223035 17.11264399 -9.6875 25.5625 C-10.3003935 27.06304353 -10.91302588 28.56369374 -11.52539062 30.06445312 C-13.01391872 33.71087263 -14.50597588 37.35582909 -16 41 C-20.75485905 40.28604219 -24.63596232 39.02817449 -29.0625 37.125 C-43.81927936 30.98625298 -61.3381587 27.05740708 -77 32 C-79.98244913 33.1353673 -79.98244913 33.1353673 -82 35 C-83.18199407 38.29269778 -83.22270646 40.73422772 -82 44 C-72.93914526 47.94750556 -62.66711717 49.34466756 -53.01806641 51.36962891 C-33.33878743 55.51716925 -11.44210745 60.21241927 0.88671875 77.671875 C7.61852702 89.21211774 8.74335487 102.21513668 5.8125 115.1875 C1.58021574 130.02975032 -7.16232639 140.24755671 -20.33203125 148.02734375 C-35.86211075 156.665206 -53.37983918 158.56931467 -70.8125 158.375 C-71.92310791 158.36851944 -71.92310791 158.36851944 -73.05615234 158.36190796 C-84.5867231 158.28324812 -95.7500487 157.66432413 -107 155 C-107.74024414 154.83371094 -108.48048828 154.66742187 -109.24316406 154.49609375 C-120.91753657 151.81461304 -131.35083077 147.4324243 -142 142 C-139.30797874 132.93376748 -135.26072847 124.50710653 -131.3125 115.9375 C-130.60309389 114.388865 -129.89410588 112.84003839 -129.18554688 111.29101562 C-127.46184723 107.52511586 -125.73249815 103.76185963 -124 100 C-123.49251221 100.22139648 -122.98502441 100.44279297 -122.4621582 100.67089844 C-112.45920949 105.01420973 -102.58139512 109.26467337 -92 112 C-91.18660156 112.22429687 -90.37320312 112.44859375 -89.53515625 112.6796875 C-83.02776846 114.18060159 -76.4606093 114.23585211 -69.8125 114.3125 C-68.87349854 114.33022461 -67.93449707 114.34794922 -66.96704102 114.36621094 C-61.37971149 114.36028011 -54.25090687 114.25090687 -50 110 C-49.54205129 105.95891431 -49.54205129 105.95891431 -51.18603516 102.42822266 C-58.53819706 96.63950837 -70.7164381 95.58580702 -79.625 93.625 C-121.42504764 84.15399885 -121.42504764 84.15399885 -133.75 66.25 C-140.14381398 55.15050774 -140.60355541 41.65195149 -138.30859375 29.26953125 C-136.35831383 22.30890876 -133.42540101 16.68338303 -129 11 C-128.59523438 10.40960937 -128.19046875 9.81921875 -127.7734375 9.2109375 C-116.92413481 -5.36573298 -96.43418912 -10.61743353 -79.5625 -13.40234375 C-52.65994889 -16.81186846 -24.16748198 -12.22571067 0 0 Z "
     fill="#FFFFFF"
     transform="translate(1287,1450)"
     id="path16"
     style="fill:#000000" />
  <path
     d="M0 0 C-2.44309924 7.79009578 -5.44299562 15.32968505 -8.56079102 22.86865234 C-9.15004977 24.30118615 -9.73263792 25.73648033 -10.30883789 27.17431641 C-11.14830613 29.26836674 -12.00723988 31.35341133 -12.87109375 33.4375 C-13.25254799 34.40453857 -13.25254799 34.40453857 -13.64170837 35.39111328 C-15.48095828 39.73796703 -15.48095828 39.73796703 -17.96728516 40.99316406 C-21.58019493 41.00531413 -24.70661783 39.21868055 -27.9375 37.75 C-35.17433552 34.61297936 -42.20299782 32.36502139 -50 31 C-50.73476563 30.86980469 -51.46953125 30.73960938 -52.2265625 30.60546875 C-61.55435915 29.21187363 -71.16656788 29.39671262 -80 33 C-82.38637478 35.50340382 -82.95927294 36.51127528 -83.25 40 C-81.57854971 44.0114807 -79.90801053 44.3495009 -76.02294922 45.96923828 C-69.48710177 48.19782396 -62.68220454 49.49898154 -55.9375 50.9375 C-11.71801189 60.42023447 -11.71801189 60.42023447 0.3125 77.375 C7.30726008 88.55141013 8.23864878 101.15300806 5.875 113.875 C2.76230114 127.37305861 -4.72277292 137.73046352 -16.21484375 145.33984375 C-42.24279513 160.85440102 -77.9077609 162.08365718 -107 155 C-107.85335937 154.79600586 -108.70671875 154.59201172 -109.5859375 154.38183594 C-121.13935464 151.53900013 -131.63669146 147.88705594 -142 142 C-139.55125964 133.97608325 -136.26617374 126.37621951 -132.90209961 118.70410156 C-131.92896141 116.4804894 -130.96720185 114.25217055 -130.00585938 112.0234375 C-129.3887015 110.6090778 -128.77088715 109.19500432 -128.15234375 107.78125 C-127.86584457 107.11468384 -127.5793454 106.44811768 -127.28416443 105.76135254 C-125.22908999 101.114545 -125.22908999 101.114545 -123 100 C-120.73666515 100.97693542 -118.57061021 102.01246485 -116.375 103.125 C-108.46276245 106.97042446 -100.47945879 109.69560356 -92 112 C-91.11570312 112.2475 -90.23140625 112.495 -89.3203125 112.75 C-82.89846934 114.2272291 -76.37251387 114.2321843 -69.8125 114.3125 C-68.87325684 114.33030518 -67.93401367 114.34811035 -66.96630859 114.36645508 C-60.9469797 114.35953141 -56.50514081 113.45176071 -51 111 C-50.23477199 107.64541845 -50.23477199 107.64541845 -50 104 C-51.96610264 101.37319633 -53.89979076 100.47607004 -57.0078125 99.60546875 C-57.81710205 99.37537109 -58.6263916 99.14527344 -59.46020508 98.90820312 C-60.3395874 98.67037109 -61.21896973 98.43253906 -62.125 98.1875 C-63.04498779 97.93033203 -63.96497559 97.67316406 -64.9128418 97.40820312 C-71.1100861 95.70405164 -77.3417348 94.19329917 -83.6027832 92.74365234 C-102.25491266 88.4221808 -122.00542082 83.69947417 -133.46875 66.83984375 C-140.25256727 55.3428511 -140.70413128 41.35741548 -138.34765625 28.41796875 C-134.08358379 14.45450401 -125.09502181 3.62199214 -112.30053711 -3.26831055 C-78.36055301 -20.55147664 -33.40013864 -17.17215608 0 0 Z "
     fill="#FFFFFF"
     transform="translate(748,1450)"
     id="path18"
     style="fill:#000000" />
  <path
     d="M0 0 C4.95 0 9.9 0 15 0 C18.06984812 3.25166145 19.20855614 5.09078979 21 9 C22.27766428 11.19464821 23.57332584 13.37887697 24.8828125 15.5546875 C25.5794133 16.74894695 26.2734563 17.94470158 26.96508789 19.1418457 C34.36880393 31.94275394 41.97139478 44.5780925 50 57 C50.49886719 56.10023437 50.99773438 55.20046875 51.51171875 54.2734375 C56.55103686 45.22878405 61.69918464 36.25264842 67.06591797 27.39746094 C69.83613599 22.80260119 72.42541742 18.22583205 74.71484375 13.37109375 C75.37444092 12.04525269 75.37444092 12.04525269 76.04736328 10.69262695 C76.86534873 9.0325048 77.6348019 7.3471852 78.34326172 5.63745117 C79.48828125 3.3828125 79.48828125 3.3828125 83 0 C88.28 0 93.56 0 99 0 C99 29.7 99 59.4 99 90 C93.39 90 87.78 90 82 90 C81.67 71.85 81.34 53.7 81 35 C74.52772715 45.91986909 74.52772715 45.91986909 68.06030273 56.84260559 C67.27133272 58.16916758 66.47743034 59.49280244 65.67993164 60.81425476 C63.66689042 64.15381663 61.7159457 67.49705247 59.90625 70.95166016 C55.51820979 79.13396824 55.51820979 79.13396824 51.80053711 81.25463867 C48.85556995 81.73444913 47.61201817 81.4650434 45 80 C41.49973216 76.05253329 39.07227918 71.60311918 36.5625 67 C35.87230314 65.78465688 35.17896359 64.57109289 34.48242188 63.359375 C32.31532484 59.57651295 30.15779671 55.78817478 28 52 C23.05 44.08 23.05 44.08 18 36 C17.67 53.82 17.34 71.64 17 90 C11.39 90 5.78 90 0 90 C0 60.3 0 30.6 0 0 Z "
     fill="#FFFFFF"
     transform="translate(565,1655)"
     id="path20"
     style="fill:#000000" />
  <path
     d="M0 0 C16 0 16 0 20.6875 4.5 C21.73920587 6.06046608 22.78873917 7.62290535 23.79833984 9.2109375 C26.1175019 12.66376552 28.84801045 15.80079855 31.5 19 C32.62646133 20.38422874 33.75148732 21.76962691 34.875 23.15625 C37.41003402 26.27629187 39.9522895 29.39029454 42.5 32.5 C46.31707444 37.16294383 50.13045933 41.82886129 53.9375 46.5 C54.50597656 47.19544922 55.07445312 47.89089844 55.66015625 48.60742188 C56.19382812 49.26291016 56.7275 49.91839844 57.27734375 50.59375 C57.75421631 51.17833984 58.23108887 51.76292969 58.72241211 52.36523438 C59.88757295 53.85614151 60.95039878 55.42559817 62 57 C62.33 38.19 62.66 19.38 63 0 C68.94 0 74.88 0 81 0 C81 29.7 81 59.4 81 90 C66 90 66 90 62.296875 87.4296875 C60.97436523 85.73413086 60.97436523 85.73413086 59.75 83.875 C59.2744165 83.24408447 58.79883301 82.61316895 58.30883789 81.96313477 C57.32276487 80.64972919 56.35590701 79.32167969 55.40869141 77.97998047 C53.62595055 75.47425632 51.72766099 73.07433999 49.81347656 70.66845703 C48.43420737 68.93335792 47.07418918 67.18432513 45.71484375 65.43359375 C42.63399461 61.50071287 39.39505525 57.71112534 36.14453125 53.91845703 C32.13460533 49.21572423 28.31185704 44.37745951 24.52734375 39.4921875 C22.76360715 37.21927694 21.03677958 35.03677958 19 33 C18.67 51.81 18.34 70.62 18 90 C12.06 90 6.12 90 0 90 C0 60.3 0 30.6 0 0 Z "
     fill="#FFFFFF"
     transform="translate(684,1655)"
     id="path22"
     style="fill:#000000" />
  <path
     d="M0 0 C0.94875 0.886875 1.8975 1.77375 2.875 2.6875 C1.39778578 6.13951639 -0.56294001 8.33711936 -3.25 10.9375 C-3.97445312 11.64390625 -4.69890625 12.3503125 -5.4453125 13.078125 C-5.99960937 13.60921875 -6.55390625 14.1403125 -7.125 14.6875 C-9.88284967 13.36666734 -12.39677646 11.88476542 -14.9375 10.1875 C-23.2727073 5.01234382 -32.59298254 4.26897345 -42.12890625 6.33984375 C-50.22046642 8.96200442 -56.61218043 13.26259341 -60.5625 20.9375 C-64.01536541 28.67935069 -64.42559722 37.56881293 -62.3359375 45.79296875 C-60.75241609 49.88473972 -59.22060545 52.60076448 -56.125 55.6875 C-56.125 56.3475 -56.125 57.0075 -56.125 57.6875 C-55.54105469 57.97625 -54.95710938 58.265 -54.35546875 58.5625 C-52.99303135 59.24968384 -51.63885104 59.95399707 -50.30078125 60.6875 C-41.75378971 65.27456464 -33.71020535 66.63062326 -24.125 64.6875 C-21.485 63.6975 -18.845 62.7075 -16.125 61.6875 C-15.795 52.4475 -15.465 43.2075 -15.125 33.6875 C-9.515 33.6875 -3.905 33.6875 1.875 33.6875 C2.08227868 38.85155394 2.26106032 44.00110595 2.36938477 49.16601562 C2.41453126 50.92009439 2.47586921 52.67383651 2.55395508 54.42675781 C3.18398997 68.93814968 3.18398997 68.93814968 0.05126953 73.12475586 C-2.30217726 74.74513344 -4.42959585 75.75829853 -7.125 76.6875 C-8.22328125 77.15800781 -9.3215625 77.62851563 -10.453125 78.11328125 C-11.89945313 78.55220703 -11.89945313 78.55220703 -13.375 79 C-14.83679688 79.45826172 -14.83679688 79.45826172 -16.328125 79.92578125 C-31.59476395 84.08359493 -47.65538512 82.61719093 -61.5 74.875 C-71.70799336 68.25136677 -78.80749046 58.81265903 -81.65625 46.875 C-83.90856456 31.55926097 -81.60064854 18.70545585 -72.85546875 5.81640625 C-65.58627203 -3.58955723 -53.98373721 -8.62848488 -42.625 -11.0625 C-27.23096631 -12.16207383 -12.14792319 -10.28087711 0 0 Z "
     fill="#FFFFFF"
     transform="translate(453.125,1664.3125)"
     id="path24"
     style="fill:#000000" />
  <path
     d="M0 0 C21.78 0 43.56 0 66 0 C66 4.62 66 9.24 66 14 C50.16 14 34.32 14 18 14 C18 21.59 18 29.18 18 37 C32.19 37 46.38 37 61 37 C61 41.62 61 46.24 61 51 C46.81 51 32.62 51 18 51 C18 58.92 18 66.84 18 75 C34.5 75 51 75 68 75 C68 79.95 68 84.9 68 90 C45.56 90 23.12 90 0 90 C0 60.3 0 30.6 0 0 Z "
     fill="#FFFFFF"
     transform="translate(1000,1655)"
     id="path26"
     style="fill:#000000" />
  <path
     d="M0 0 C0.74886475 0.00523682 1.49772949 0.01047363 2.26928711 0.01586914 C3.07817383 0.0190918 3.88706055 0.02231445 4.72045898 0.02563477 C5.5705957 0.03401367 6.42073242 0.04239258 7.29663086 0.05102539 C8.15063477 0.05553711 9.00463867 0.06004883 9.88452148 0.06469727 C12.00108749 0.07652166 14.11761771 0.0944577 16.23413086 0.11352539 C25.96568838 21.05132477 35.60876212 42.02132396 44.92944336 63.14575195 C45.23901978 63.84700195 45.54859619 64.54825195 45.86755371 65.27075195 C46.4669391 66.62860055 47.06583266 67.98666638 47.66418457 69.3449707 C50.08399136 74.82053069 52.60987034 80.241682 55.17651367 85.65014648 C56.23413086 88.11352539 56.23413086 88.11352539 56.23413086 90.11352539 C49.96413086 90.11352539 43.69413086 90.11352539 37.23413086 90.11352539 C35.89646536 86.99031531 34.5638335 83.8651235 33.23413086 80.73852539 C32.85256836 79.84907227 32.47100586 78.95961914 32.07788086 78.04321289 C31.71694336 77.19243164 31.35600586 76.34165039 30.98413086 75.46508789 C30.48139648 74.2868042 30.48139648 74.2868042 29.96850586 73.0847168 C29.23413086 71.11352539 29.23413086 71.11352539 29.23413086 69.11352539 C14.71413086 69.44352539 0.19413086 69.77352539 -14.76586914 70.11352539 C-17.40586914 76.38352539 -20.04586914 82.65352539 -22.76586914 89.11352539 C-23.76586914 90.11352539 -23.76586914 90.11352539 -25.53173828 90.22705078 C-26.28060303 90.22181396 -27.02946777 90.21657715 -27.80102539 90.21118164 C-28.60991211 90.20795898 -29.41879883 90.20473633 -30.25219727 90.20141602 C-31.10233398 90.19303711 -31.9524707 90.1846582 -32.82836914 90.17602539 C-33.68237305 90.17151367 -34.53637695 90.16700195 -35.41625977 90.16235352 C-37.53282578 90.15052912 -39.64935599 90.13259308 -41.76586914 90.11352539 C-39.38238354 82.12078422 -35.94650007 74.67904265 -32.44381714 67.13247681 C-30.63923463 63.24386118 -28.85041626 59.34798839 -27.05883789 55.45336914 C-26.51547539 54.27396004 -26.51547539 54.27396004 -25.96113586 53.07072449 C-22.49552644 45.54317301 -19.08808992 37.99023511 -15.70336914 30.42602539 C-15.17275879 29.24137695 -14.64214844 28.05672852 -14.09545898 26.83618164 C-10.65686471 19.14387033 -7.26481224 11.43284845 -3.93774414 3.69165039 C-2.32774283 0.14964751 -2.32774283 0.14964751 0 0 Z M6.23413086 19.11352539 C4.09560669 24.07876901 1.95942274 29.04501011 -0.17456055 34.01220703 C-0.9014501 35.70324158 -1.62898811 37.39399754 -2.35717773 39.08447266 C-3.40134963 41.50879829 -4.44321557 43.93410328 -5.48461914 46.35961914 C-5.81272583 47.12004013 -6.14083252 47.88046112 -6.47888184 48.66392517 C-8.06494098 51.78446839 -8.06494098 51.78446839 -8.76586914 55.11352539 C1.46413086 55.11352539 11.69413086 55.11352539 22.23413086 55.11352539 C21.36351959 50.76046905 20.11306661 47.12005265 18.36303711 43.09790039 C18.08064682 42.44146545 17.79825653 41.78503052 17.50730896 41.10870361 C16.91212909 39.72935908 16.31443072 38.35109883 15.71435547 36.97387695 C14.79507428 34.85994597 13.88824114 32.74096226 12.98217773 30.62133789 C12.40154128 29.27986989 11.82018618 27.93871267 11.23803711 26.59790039 C10.9671376 25.96253357 10.6962381 25.32716675 10.41712952 24.67254639 C9.06183269 21.25123101 9.06183269 21.25123101 6.23413086 19.11352539 Z "
     fill="#FFFFFF"
     transform="translate(816.765869140625,1654.886474609375)"
     id="path28"
     style="fill:#000000" />
  <path
     d="M0 0 C1.32830615 3.98491845 0.23204404 5.40048548 -1.4375 9.1875 C-1.91058594 10.27417969 -2.38367188 11.36085938 -2.87109375 12.48046875 C-3.24363281 13.31191406 -3.61617187 14.14335938 -4 15 C-4.52207031 14.81824219 -5.04414062 14.63648438 -5.58203125 14.44921875 C-8.04697865 13.60742411 -10.52078602 12.79881786 -13 12 C-14.31677734 11.57074219 -14.31677734 11.57074219 -15.66015625 11.1328125 C-25.25432237 8.23385583 -34.7816345 7.40072947 -44 12 C-46.87962852 14.44332117 -46.96476241 15.71809924 -47.4375 19.5 C-46.91320087 23.69439307 -46.24332834 24.41056851 -43 27 C-40.57647374 27.96308576 -38.30769154 28.73891911 -35.8125 29.4375 C-35.11632568 29.64576416 -34.42015137 29.85402832 -33.70288086 30.06860352 C-29.97834202 31.1756966 -26.23656852 32.20992087 -22.484375 33.21875 C-12.87531219 35.83777534 -4.08628175 38.25314036 2 46.75 C5.14565874 52.45354734 5.64923511 58.71351292 4.4375 65.0625 C2.39626218 71.69652291 -1.2166729 77.31907447 -7.25 80.875 C-8.81610879 81.62064323 -10.4000408 82.33006634 -12 83 C-12.69222656 83.31839844 -13.38445313 83.63679688 -14.09765625 83.96484375 C-27.17198192 88.96859802 -45.31493277 87.13958519 -57.90625 81.7578125 C-61.44851677 80.03757375 -64.72253398 78.18497735 -68 76 C-66.45941767 70.98491285 -64.97068161 66.3852919 -62 62 C-57.2465831 63.88210798 -52.54484086 65.87943081 -47.83984375 67.87890625 C-42.74995146 69.8882585 -38.13622744 70.21232513 -32.6875 70.25 C-31.95337891 70.270625 -31.21925781 70.29125 -30.46289062 70.3125 C-24.53230124 70.35459824 -19.55095071 69.38637324 -15.0625 65.1875 C-13.17904457 61.30979765 -13.66912395 57.99262815 -15 54 C-19.6324229 51.58552503 -25.04592795 50.52147047 -30.0625 49.125 C-32.87139094 48.32652375 -35.67899794 47.52367101 -38.48632812 46.71972656 C-40.57873346 46.12061905 -42.67206434 45.5247452 -44.765625 44.9296875 C-52.53060077 42.56037438 -59.16582487 39.51810147 -63.4375 32.3125 C-66.56061885 25.69148803 -67.21575565 18.93339941 -64.9375 11.875 C-61.62946895 4.29409552 -56.13619649 -0.67953804 -48.66796875 -4.03515625 C-33.2568287 -9.60843823 -14.24903867 -8.15267577 0 0 Z "
     fill="#FFFFFF"
     transform="translate(946,1660)"
     id="path30"
     style="fill:#000000" />
  <path
     d="M0 0 C3.04650632 -0.24432377 6.07341019 -0.42155414 9.125 -0.5625 C9.9809375 -0.63791016 10.836875 -0.71332031 11.71875 -0.79101562 C15.25084179 -0.91328034 17.90621865 -0.99336592 20.60888672 1.46118164 C22.26648792 3.89056522 23.61803932 6.40279468 25 9 C26.14200225 10.93451837 27.30682405 12.85437938 28.47116089 14.77552795 C30.63387284 18.3545257 32.75033876 21.96083343 34.875 25.5625 C35.76279328 27.06328568 36.65081234 28.56393781 37.5390625 30.06445312 C39.69531394 33.70810139 41.84850379 37.35354203 44 41 C46.25581483 38.24400843 48.39348094 35.55814747 50.15625 32.4609375 C50.71989258 31.47951782 50.71989258 31.47951782 51.29492188 30.47827148 C51.89143555 29.4371521 51.89143555 29.4371521 52.5 28.375 C53.39582567 26.87369334 54.29165933 25.37239146 55.1875 23.87109375 C57.16098896 20.52644111 58.95326069 17.13430643 60.6875 13.66015625 C67.35502005 0.95268886 67.35502005 0.95268886 72.29101562 -0.82519531 C77.65328185 -1.62720751 82.70622103 -1.005818 88 0 C83.88705773 7.74471831 79.48471828 15.2853136 74.90820312 22.76303101 C73.78189812 24.61275735 72.6690713 26.47007994 71.55859375 28.3293457 C68.3973856 33.59985906 65.26643251 38.8078889 61.48046875 43.6640625 C51.0023287 57.51324351 52.57556308 73.35812438 53 90 C47.06 90 41.12 90 35 90 C35.04382813 87.8034375 35.08765625 85.606875 35.1328125 83.34375 C35.47827797 61.89642667 35.47827797 61.89642667 25.79150391 43.41552734 C22.0993528 38.43731216 19.08873506 32.99324775 15.94821167 27.65682983 C14.40626895 25.04212886 12.84685316 22.4381169 11.28590393 19.83473206 C10.19573139 18.0163543 9.10841539 16.19629328 8.02148438 14.37597656 C6.72636781 12.21306933 5.42605545 10.05325969 4.11914062 7.89746094 C3.56935547 6.9902832 3.01957031 6.08310547 2.453125 5.1484375 C1.97520508 4.36388184 1.49728516 3.57932617 1.00488281 2.77099609 C0 1 0 1 0 0 Z "
     fill="#FFFFFF"
     transform="translate(465,1655)"
     id="path32"
     style="fill:#000000" />
  <path
     d="M0 0 C25.41 0 50.82 0 77 0 C77 4.95 77 9.9 77 15 C67.1 15 57.2 15 47 15 C47 39.75 47 64.5 47 90 C41.06 90 35.12 90 29 90 C29 65.25 29 40.5 29 15 C19.43 15 9.86 15 0 15 C0 10.05 0 5.1 0 0 Z "
     fill="#FFFFFF"
     transform="translate(1077,1655)"
     id="path34"
     style="fill:#000000" />
  <path
     d="M0 0 C5.94 0 11.88 0 18 0 C18 29.7 18 59.4 18 90 C12.06 90 6.12 90 0 90 C0 60.3 0 30.6 0 0 Z "
     fill="#FFFFFF"
     transform="translate(966,1655)"
     id="path36"
     style="fill:#000000" />
  <path
     d="M0 0 C4.78325047 4.91611854 6.49842912 9.50828928 6.6875 16.375 C6.39083613 23.53089207 4.77369931 28.12880105 -0.4375 33.125 C-6.02097219 37.65076525 -10.79221643 38.60213362 -17.875 38.125 C-24.92395788 37.16573815 -28.91881144 34.56535104 -33.453125 29.2265625 C-37.27562195 23.58492544 -37.48366092 17.92473511 -36.75 11.3125 C-34.96702809 5.07743656 -31.07650319 0.86350213 -25.75 -2.6875 C-16.93615095 -6.90281911 -8.0023066 -4.91050632 0 0 Z "
     fill="#FFFFFF"
     transform="translate(493.75,1391.6875)"
     id="path38"
     style="fill:#000000" />
  <path
     d="M0 0 C4.99363033 5.13234229 6.5077852 9.77341461 6.6875 16.9375 C6.4623769 23.43605354 5.19087875 27.05688416 0.9375 32 C-4.74742516 36.89167979 -10.3378034 38.48045007 -17.75 38.3125 C-24.2064027 37.22942267 -29.53887098 34.35672501 -33.75 29.3125 C-37.28031598 23.35744742 -37.61990382 16.90081621 -36.3515625 10.2109375 C-34.58577547 4.27147204 -30.75672721 0.77500675 -25.75 -2.6875 C-17.006369 -6.96629815 -7.95359896 -4.88061754 0 0 Z "
     fill="#FFFFFF"
     transform="translate(1030.75,1391.6875)"
     id="path40"
     style="fill:#000000" />
  <path
     d="M0 0 C5.27364482 4.57049218 8.57614348 8.52518687 9.23828125 15.515625 C9.44064056 22.9709679 8.4439153 28.08527096 3.45703125 33.75390625 C-1.32902072 38.29901281 -5.95596068 40.01253966 -12.51953125 39.9921875 C-19.52852402 39.50880869 -24.44929932 37.9334671 -29.25 32.625 C-33.60406238 27.49844268 -34.52215336 22.50239048 -34.37109375 15.91796875 C-33.63874611 10.15940365 -31.47427471 5.13130594 -27.02734375 1.30078125 C-18.69252676 -4.13632367 -8.84466674 -4.87714665 0 0 Z "
     fill="#FFFFFF"
     transform="translate(1080,1390)"
     id="path42"
     style="fill:#000000" />
  <path
     d="M0 0 C5.13847233 4.08742117 8.44511825 9.1550618 9.38671875 15.6796875 C9.67907256 22.95828934 8.29110463 28.2589722 3.45703125 33.75390625 C-1.32902072 38.29901281 -5.95596068 40.01253966 -12.51953125 39.9921875 C-19.52852402 39.50880869 -24.44929932 37.9334671 -29.25 32.625 C-33.71296923 27.37021365 -34.39445285 22.43580749 -34.25 15.71875 C-33.66052784 9.30824022 -30.89393717 5.19480329 -26 1 C-18.04456544 -4.4329797 -8.45845348 -4.60021154 0 0 Z "
     fill="#FFFFFF"
     transform="translate(543,1390)"
     id="path44"
     style="fill:#000000" />
</svg>
