<?xml version="1.0" encoding="UTF-8" standalone="no"?>
<!-- Created with Inkscape (http://www.inkscape.org/) -->

<svg
   xmlns:dc="http://purl.org/dc/elements/1.1/"
   xmlns:cc="http://creativecommons.org/ns#"
   xmlns:rdf="http://www.w3.org/1999/02/22-rdf-syntax-ns#"
   xmlns:svg="http://www.w3.org/2000/svg"
   xmlns="http://www.w3.org/2000/svg"
   xmlns:sodipodi="http://sodipodi.sourceforge.net/DTD/sodipodi-0.dtd"
   xmlns:inkscape="http://www.inkscape.org/namespaces/inkscape"
   id="svg2"
   version="1.1"
   inkscape:version="0.91 r13725"
   xml:space="preserve"
   width="413.36911"
   height="132.06938"
   viewBox="0 0 413.36911 132.06938"
   sodipodi:docname="Stenungsunds+kommun_horistontell_CMYK-01.svg"><metadata
     id="metadata8"><rdf:RDF><cc:Work
         rdf:about=""><dc:format>image/svg+xml</dc:format><dc:type
           rdf:resource="http://purl.org/dc/dcmitype/StillImage" /><dc:title></dc:title></cc:Work></rdf:RDF></metadata><defs
     id="defs6"><clipPath
       clipPathUnits="userSpaceOnUse"
       id="clipPath86"><path
         d="m 471.637,471.449 3620.64,0 0,1052.91 -3620.64,0 0,-1052.91 z"
         id="path88"
         inkscape:connector-curvature="0" /></clipPath></defs><sodipodi:namedview
     pagecolor="#ffffff"
     bordercolor="#666666"
     borderopacity="1"
     objecttolerance="10"
     gridtolerance="10"
     guidetolerance="10"
     inkscape:pageopacity="0"
     inkscape:pageshadow="2"
     inkscape:window-width="640"
     inkscape:window-height="480"
     id="namedview4"
     showgrid="false"
     fit-margin-top="0"
     fit-margin-left="0"
     fit-margin-right="0"
     fit-margin-bottom="0"
     inkscape:zoom="0.61523989"
     inkscape:cx="206.79538"
     inkscape:cy="66.2745"
     inkscape:window-x="147"
     inkscape:window-y="244"
     inkscape:window-maximized="0"
     inkscape:current-layer="g10" /><g
     id="g10"
     inkscape:groupmode="layer"
     inkscape:label="ink_ext_XXXXXX"
     transform="matrix(1.25,0,0,-1.25,-58.954625,190.54488)"><g
       id="g12"
       transform="scale(0.1,0.1)"><path
         d="m 1701.83,1306.18 c -8.59,12.08 -23.86,17.8 -39.45,17.8 -18.45,0 -36.9,-8.26 -36.9,-28.94 0,-45.17 106.88,-19.4 106.88,-99.56 0,-48.36 -38.17,-71.89 -82.38,-71.89 -27.99,0 -55.35,8.58 -73.8,30.53 l 30.22,29.27 c 9.86,-14.96 26.72,-23.54 44.53,-23.54 18.45,0 39.45,10.18 39.45,30.85 0,49.31 -106.88,21 -106.88,101.48 0,46.44 41.35,68.07 83.02,68.07 23.54,0 47.08,-6.68 64.57,-23.22 l -29.26,-30.85"
         style="fill:#231f20;fill-opacity:1;fill-rule:nonzero;stroke:none"
         id="path14"
         inkscape:connector-curvature="0" /><path
         d="m 1769.26,1249.55 0,32.45 31.49,0 0,44.21 38.17,0 0,-44.21 41.99,0 0,-32.45 -41.99,0 0,-66.8 c 0,-15.27 4.45,-24.81 21.31,-24.81 6.68,0 15.91,1.27 20.68,4.77 l 0,-32.13 c -7.96,-3.82 -21.32,-5.09 -30.22,-5.09 -40.4,0 -49.94,18.14 -49.94,54.08 l 0,69.98 -31.49,0"
         style="fill:#231f20;fill-opacity:1;fill-rule:nonzero;stroke:none"
         id="path16"
         inkscape:connector-curvature="0" /><path
         d="m 2028.02,1220.92 c -0.32,22.27 -14.95,36.26 -38.81,36.26 -22.58,0 -36.58,-14.31 -39.44,-36.26 l 78.25,0 z m -78.25,-28.63 c 2.54,-22.58 19.72,-36.26 41.03,-36.26 19.09,0 31.5,8.91 41.04,20.68 l 27.35,-20.68 c -17.81,-21.95 -40.39,-30.54 -64.57,-30.54 -46.12,0 -83.02,32.13 -83.02,80.16 0,48.04 36.9,80.17 83.02,80.17 42.63,0 71.57,-29.91 71.57,-83.03 l 0,-10.5 -116.42,0"
         style="fill:#231f20;fill-opacity:1;fill-rule:nonzero;stroke:none"
         id="path18"
         inkscape:connector-curvature="0" /><path
         d="m 2114.25,1282 36.26,0 0,-24.5 0.64,0 c 7,15.27 21.31,28.32 46.76,28.32 41.03,0 55.66,-28.95 55.66,-60.13 l 0,-96.38 -38.17,0 0,77.3 c 0,16.86 -1.27,44.85 -27.99,44.85 -25.13,0 -34.99,-18.45 -34.99,-38.81 l 0,-83.34 -38.17,0 0,152.69"
         style="fill:#231f20;fill-opacity:1;fill-rule:nonzero;stroke:none"
         id="path20"
         inkscape:connector-curvature="0" /><path
         d="m 2446.94,1129.31 -36.26,0 0,24.49 -0.64,0 c -6.99,-15.26 -21.31,-28.31 -46.76,-28.31 -41.04,0 -55.67,28.95 -55.67,60.13 l 0,96.38 38.17,0 0,-77.3 c 0,-16.86 1.28,-44.85 28,-44.85 25.13,0 34.99,18.45 34.99,38.81 l 0,83.34 38.17,0 0,-152.69"
         style="fill:#231f20;fill-opacity:1;fill-rule:nonzero;stroke:none"
         id="path22"
         inkscape:connector-curvature="0" /><path
         d="m 2502.37,1282 36.26,0 0,-24.5 0.64,0 c 7,15.27 21.31,28.32 46.76,28.32 41.04,0 55.67,-28.95 55.67,-60.13 l 0,-96.38 -38.17,0 0,77.3 c 0,16.86 -1.27,44.85 -27.99,44.85 -25.14,0 -35,-18.45 -35,-38.81 l 0,-83.34 -38.17,0 0,152.69"
         style="fill:#231f20;fill-opacity:1;fill-rule:nonzero;stroke:none"
         id="path24"
         inkscape:connector-curvature="0" /><path
         d="m 2726.81,1205.97 c 0,-24.17 19.09,-44.22 44.86,-44.22 28.31,0 45.48,19.41 45.48,44.86 0,26.4 -17.49,44.85 -45.17,44.85 -26.72,0 -45.17,-18.45 -45.17,-45.49 z m 126.61,76.03 0,-139.01 c 0,-55.03 -26.72,-90.02 -86.21,-90.02 -28.31,0 -54.07,6.04 -75.7,25.12 l 22.9,31.18 c 15.27,-14 31.17,-21.95 52.48,-21.95 36.9,0 48.36,21 48.36,51.22 l 0,11.13 -0.64,0 c -11.13,-14.95 -30.86,-22.27 -49.94,-22.27 -45.81,0 -76.03,34.99 -76.03,78.25 0,45.17 28.31,80.17 75.39,80.17 21.32,0 41.35,-8.28 52.49,-26.73 l 0.63,0 0,22.91 36.27,0"
         style="fill:#231f20;fill-opacity:1;fill-rule:nonzero;stroke:none"
         id="path26"
         inkscape:connector-curvature="0" /><path
         d="m 2991.49,1239.69 c -7.32,10.18 -16.86,15.59 -29.9,15.59 -10.18,0 -22.27,-4.78 -22.27,-16.23 0,-27.35 82.39,-5.09 82.39,-64.57 0,-36.26 -34.67,-48.99 -65.85,-48.99 -23.53,0 -43.89,6.05 -59.48,23.54 l 25.45,23.86 c 9.86,-10.82 20.04,-18.77 36.26,-18.77 11.13,0 25.45,5.41 25.45,17.5 0,31.49 -82.39,6.68 -82.39,64.89 0,34.04 30.54,49.31 61.39,49.31 20.36,0 41.99,-6.37 54.4,-23.23 l -25.45,-22.9"
         style="fill:#231f20;fill-opacity:1;fill-rule:nonzero;stroke:none"
         id="path28"
         inkscape:connector-curvature="0" /><path
         d="m 3203.81,1129.31 -36.26,0 0,24.49 -0.64,0 c -7,-15.26 -21.31,-28.31 -46.76,-28.31 -41.03,0 -55.67,28.95 -55.67,60.13 l 0,96.38 38.18,0 0,-77.3 c 0,-16.86 1.27,-44.85 27.99,-44.85 25.13,0 34.99,18.45 34.99,38.81 l 0,83.34 38.17,0 0,-152.69"
         style="fill:#231f20;fill-opacity:1;fill-rule:nonzero;stroke:none"
         id="path30"
         inkscape:connector-curvature="0" /><path
         d="m 3259.24,1282 36.27,0 0,-24.5 0.63,0 c 7,15.27 21.32,28.32 46.76,28.32 41.04,0 55.67,-28.95 55.67,-60.13 l 0,-96.38 -38.17,0 0,77.3 c 0,16.86 -1.27,44.85 -27.99,44.85 -25.13,0 -34.99,-18.45 -34.99,-38.81 l 0,-83.34 -38.18,0 0,152.69"
         style="fill:#231f20;fill-opacity:1;fill-rule:nonzero;stroke:none"
         id="path32"
         inkscape:connector-curvature="0" /><path
         d="m 3528.54,1159.85 c 27.99,0 44.85,21.95 44.85,45.8 0,23.86 -16.86,45.81 -44.85,45.81 -27.99,0 -44.85,-21.95 -44.85,-45.81 0,-23.85 16.86,-45.8 44.85,-45.8 z m 45.49,-7.64 -0.64,0 c -11.13,-18.44 -31.17,-26.72 -52.48,-26.72 -47.08,0 -75.39,34.99 -75.39,80.16 0,45.17 30.22,80.17 73.79,80.17 28.63,0 43.9,-13.37 51.86,-23.23 l 0.95,0 0,107.2 38.17,0 0,-240.48 -36.26,0 0,22.9"
         style="fill:#231f20;fill-opacity:1;fill-rule:nonzero;stroke:none"
         id="path34"
         inkscape:connector-curvature="0" /><path
         d="m 3748.36,1239.69 c -7.31,10.18 -16.86,15.59 -29.9,15.59 -10.18,0 -22.26,-4.78 -22.26,-16.23 0,-27.35 82.39,-5.09 82.39,-64.57 0,-36.26 -34.68,-48.99 -65.85,-48.99 -23.54,0 -43.9,6.05 -59.49,23.54 l 25.45,23.86 c 9.86,-10.82 20.04,-18.77 36.26,-18.77 11.14,0 25.45,5.41 25.45,17.5 0,31.49 -82.39,6.68 -82.39,64.89 0,34.04 30.54,49.31 61.4,49.31 20.36,0 41.99,-6.37 54.39,-23.23 l -25.45,-22.9"
         style="fill:#231f20;fill-opacity:1;fill-rule:nonzero;stroke:none"
         id="path36"
         inkscape:connector-curvature="0" /><path
         d="m 1587.95,983.191 38.17,0 0,-151.089 58.85,63.296 48.99,0 -65.53,-69.347 69.66,-83.332 -50.58,0 -60.75,77.929 -0.64,0 0,-77.929 -38.17,0 0,240.472"
         style="fill:#231f20;fill-opacity:1;fill-rule:nonzero;stroke:none"
         id="path38"
         inkscape:connector-curvature="0" /><path
         d="m 1837.77,773.25 c 28,0 44.86,21.949 44.86,45.801 0,23.859 -16.86,45.82 -44.86,45.82 -27.99,0 -44.85,-21.961 -44.85,-45.82 0,-23.852 16.86,-45.801 44.85,-45.801 z m 0,125.969 c 46.13,0 83.03,-32.129 83.03,-80.168 0,-48.02 -36.9,-80.16 -83.03,-80.16 -46.12,0 -83.02,32.14 -83.02,80.16 0,48.039 36.9,80.168 83.02,80.168"
         style="fill:#231f20;fill-opacity:1;fill-rule:nonzero;stroke:none"
         id="path40"
         inkscape:connector-curvature="0" /><path
         d="m 1967.19,895.398 36.27,0 0,-23.847 0.63,0 c 6.68,14.301 21.32,27.668 46.76,27.668 23.54,0 39.77,-9.231 47.72,-28.309 11.13,19.399 27.35,28.309 50.26,28.309 40.71,0 55.03,-28.938 55.03,-65.528 l 0,-90.972 -38.17,0 0,86.511 c 0,19.09 -5.73,35.641 -28.31,35.641 -23.86,0 -32.77,-19.73 -32.77,-39.449 l 0,-82.703 -38.17,0 0,90.972 c 0,18.77 -7.63,31.18 -26.08,31.18 -25.13,0 -34.99,-18.461 -34.99,-38.82 l 0,-83.332 -38.18,0 0,152.679"
         style="fill:#231f20;fill-opacity:1;fill-rule:nonzero;stroke:none"
         id="path42"
         inkscape:connector-curvature="0" /><path
         d="m 2257.92,895.398 36.27,0 0,-23.847 0.63,0 c 6.68,14.301 21.32,27.668 46.76,27.668 23.54,0 39.76,-9.231 47.72,-28.309 11.13,19.399 27.36,28.309 50.26,28.309 40.72,0 55.03,-28.938 55.03,-65.528 l 0,-90.972 -38.17,0 0,86.511 c 0,19.09 -5.73,35.641 -28.31,35.641 -23.86,0 -32.77,-19.73 -32.77,-39.449 l 0,-82.703 -38.17,0 0,90.972 c 0,18.77 -7.63,31.18 -26.08,31.18 -25.13,0 -34.99,-18.461 -34.99,-38.82 l 0,-83.332 -38.18,0 0,152.679"
         style="fill:#231f20;fill-opacity:1;fill-rule:nonzero;stroke:none"
         id="path44"
         inkscape:connector-curvature="0" /><path
         d="m 2687.57,742.719 -36.27,0 0,24.48 -0.63,0 c -7,-15.258 -21.31,-28.308 -46.76,-28.308 -41.04,0 -55.67,28.949 -55.67,60.129 l 0,96.378 38.17,0 0,-77.296 c 0,-16.864 1.27,-44.852 27.99,-44.852 25.14,0 34.99,18.449 34.99,38.809 l 0,83.339 38.18,0 0,-152.679"
         style="fill:#231f20;fill-opacity:1;fill-rule:nonzero;stroke:none"
         id="path46"
         inkscape:connector-curvature="0" /><path
         d="m 2743,895.398 36.26,0 0,-24.488 0.64,0 c 7,15.27 21.31,28.309 46.76,28.309 41.04,0 55.67,-28.938 55.67,-60.117 l 0,-96.383 -38.17,0 0,77.293 c 0,16.859 -1.28,44.859 -27.99,44.859 -25.14,0 -35,-18.461 -35,-38.82 l 0,-83.332 -38.17,0 0,152.679"
         style="fill:#231f20;fill-opacity:1;fill-rule:nonzero;stroke:none"
         id="path48"
         inkscape:connector-curvature="0" /><path
         d="m 537.895,787.559 c 55.953,0 73.726,77.113 125.015,77.113 51.301,0 73.445,-83.231 129.395,-83.231 55.953,0 65.867,84.118 122.398,83.231 56.539,-0.871 65.867,-83.231 124.147,-83.231 58.29,0 59.17,83.231 119.78,83.231 60.62,0 71.7,-84.203 124.15,-83.231 25.67,0.469 49,35.079 64.96,66.547 3.21,21.461 4.89,43.442 4.89,65.813 0,10.738 0,606.309 0,606.309 l -877.767,0 c 0,0 0,-594.688 0,-605.43 0,-23.25 1.821,-46.071 5.27,-68.36 13.82,-27.941 34.344,-58.761 57.762,-58.761"
         style="fill:#e0e3e2;fill-opacity:1;fill-rule:nonzero;stroke:none"
         id="path50"
         inkscape:connector-curvature="0" /><path
         d="m 1296.13,1193.22 c 0,52 -38.25,94.94 -88.12,102.55 l 0,92.42 -31.47,0 0,-92.42 c -44.73,-6.82 -79.99,-42.09 -86.81,-86.81 l -72.48,0 c -6.82,44.72 -42.078,79.99 -86.809,86.81 l 0,92.42 -31.472,0 0,-92.42 c -44.727,-6.82 -79.981,-42.09 -86.809,-86.81 l -72.476,0 c -6.825,44.72 -42.082,79.99 -86.805,86.81 l 0,92.42 -31.477,0 0,-92.42 c -49.871,-7.61 -88.125,-50.55 -88.125,-102.55 0,-51.99 38.254,-94.94 88.125,-102.54 l 0,-92.422 31.477,0 0,92.422 c 44.723,6.82 79.98,42.09 86.805,86.81 l 72.476,0 c 6.828,-44.72 42.082,-79.99 86.809,-86.81 l 0,-92.422 31.472,0 0,92.422 c 44.731,6.82 79.989,42.09 86.809,86.81 l 72.48,0 c 6.82,-44.72 42.08,-79.99 86.81,-86.81 l 0,-92.422 31.47,0 0,92.422 c 49.87,7.6 88.12,50.55 88.12,102.54"
         style="fill:#231f20;fill-opacity:1;fill-rule:nonzero;stroke:none"
         id="path52"
         inkscape:connector-curvature="0" /><path
         d="m 914.703,927.73 c 30.731,0 55.641,24.899 55.641,55.629 0,30.731 -24.91,55.641 -55.641,55.641 -30.726,0 -55.637,-24.91 -55.637,-55.641 0,-30.73 24.911,-55.629 55.637,-55.629"
         style="fill:#dc164c;fill-opacity:1;fill-rule:nonzero;stroke:none"
         id="path54"
         inkscape:connector-curvature="0" /><path
         d="m 914.703,927.73 c 30.731,0 55.641,24.899 55.641,55.629 0,30.731 -24.91,55.641 -55.641,55.641 -30.726,0 -55.637,-24.91 -55.637,-55.641 0,-30.73 24.911,-55.629 55.637,-55.629 z"
         style="fill:none;stroke:#231f20;stroke-width:14.28999996;stroke-linecap:butt;stroke-linejoin:miter;stroke-miterlimit:4;stroke-dasharray:none;stroke-opacity:1"
         id="path56"
         inkscape:connector-curvature="0" /><path
         d="m 914.703,1347.41 c 30.731,0 55.641,24.91 55.641,55.64 0,30.73 -24.91,55.64 -55.641,55.64 -30.726,0 -55.637,-24.91 -55.637,-55.64 0,-30.73 24.911,-55.64 55.637,-55.64"
         style="fill:#dc164c;fill-opacity:1;fill-rule:nonzero;stroke:none"
         id="path58"
         inkscape:connector-curvature="0" /><path
         d="m 914.703,1347.41 c 30.731,0 55.641,24.91 55.641,55.64 0,30.73 -24.91,55.64 -55.641,55.64 -30.726,0 -55.637,-24.91 -55.637,-55.64 0,-30.73 24.911,-55.64 55.637,-55.64 z"
         style="fill:none;stroke:#231f20;stroke-width:14.28999996;stroke-linecap:butt;stroke-linejoin:miter;stroke-miterlimit:4;stroke-dasharray:none;stroke-opacity:1"
         id="path60"
         inkscape:connector-curvature="0" /><path
         d="m 637.141,927.73 c 30.73,0 55.64,24.899 55.64,55.629 0,30.731 -24.91,55.641 -55.64,55.641 -30.727,0 -55.641,-24.91 -55.641,-55.641 0,-30.73 24.914,-55.629 55.641,-55.629"
         style="fill:#dc164c;fill-opacity:1;fill-rule:nonzero;stroke:none"
         id="path62"
         inkscape:connector-curvature="0" /><path
         d="m 637.141,927.73 c 30.73,0 55.64,24.899 55.64,55.629 0,30.731 -24.91,55.641 -55.64,55.641 -30.727,0 -55.641,-24.91 -55.641,-55.641 0,-30.73 24.914,-55.629 55.641,-55.629 z"
         style="fill:none;stroke:#231f20;stroke-width:14.28999996;stroke-linecap:butt;stroke-linejoin:miter;stroke-miterlimit:4;stroke-dasharray:none;stroke-opacity:1"
         id="path64"
         inkscape:connector-curvature="0" /><path
         d="m 637.141,1347.41 c 30.73,0 55.64,24.91 55.64,55.64 0,30.73 -24.91,55.64 -55.64,55.64 -30.727,0 -55.641,-24.91 -55.641,-55.64 0,-30.73 24.914,-55.64 55.641,-55.64"
         style="fill:#dc164c;fill-opacity:1;fill-rule:nonzero;stroke:none"
         id="path66"
         inkscape:connector-curvature="0" /><path
         d="m 637.141,1347.41 c 30.73,0 55.64,24.91 55.64,55.64 0,30.73 -24.91,55.64 -55.64,55.64 -30.727,0 -55.641,-24.91 -55.641,-55.64 0,-30.73 24.914,-55.64 55.641,-55.64 z"
         style="fill:none;stroke:#231f20;stroke-width:14.28999996;stroke-linecap:butt;stroke-linejoin:miter;stroke-miterlimit:4;stroke-dasharray:none;stroke-opacity:1"
         id="path68"
         inkscape:connector-curvature="0" /><path
         d="m 1192.27,927.73 c 30.73,0 55.64,24.899 55.64,55.629 0,30.731 -24.91,55.641 -55.64,55.641 -30.73,0 -55.64,-24.91 -55.64,-55.641 0,-30.73 24.91,-55.629 55.64,-55.629"
         style="fill:#dc164c;fill-opacity:1;fill-rule:nonzero;stroke:none"
         id="path70"
         inkscape:connector-curvature="0" /><path
         d="m 1192.27,927.73 c 30.73,0 55.64,24.899 55.64,55.629 0,30.731 -24.91,55.641 -55.64,55.641 -30.73,0 -55.64,-24.91 -55.64,-55.641 0,-30.73 24.91,-55.629 55.64,-55.629 z"
         style="fill:none;stroke:#231f20;stroke-width:14.28999996;stroke-linecap:butt;stroke-linejoin:miter;stroke-miterlimit:4;stroke-dasharray:none;stroke-opacity:1"
         id="path72"
         inkscape:connector-curvature="0" /><path
         d="m 1192.27,1347.41 c 30.73,0 55.64,24.91 55.64,55.64 0,30.73 -24.91,55.64 -55.64,55.64 -30.73,0 -55.64,-24.91 -55.64,-55.64 0,-30.73 24.91,-55.64 55.64,-55.64"
         style="fill:#dc164c;fill-opacity:1;fill-rule:nonzero;stroke:none"
         id="path74"
         inkscape:connector-curvature="0" /><path
         d="m 1192.27,1347.41 c 30.73,0 55.64,24.91 55.64,55.64 0,30.73 -24.91,55.64 -55.64,55.64 -30.73,0 -55.64,-24.91 -55.64,-55.64 0,-30.73 24.91,-55.64 55.64,-55.64 z"
         style="fill:none;stroke:#231f20;stroke-width:14.28999996;stroke-linecap:butt;stroke-linejoin:miter;stroke-miterlimit:4;stroke-dasharray:none;stroke-opacity:1"
         id="path76"
         inkscape:connector-curvature="0" /><path
         d="m 1282.78,796.121 c -52.45,-0.973 -63.53,68.551 -124.15,68.551 -60.61,0 -61.49,-68.551 -119.78,-68.551 -58.28,0 -67.608,67.68 -124.147,68.551 -56.535,0.887 -66.445,-68.551 -122.398,-68.551 -55.957,0 -78.098,68.551 -129.395,68.551 -51.289,0 -69.066,-62.434 -125.015,-62.434 -23.422,0 -43.942,16.141 -57.766,44.082 32.656,-210.539 213.777,-371.371 433.613,-371.371 220.718,0 402.418,161.383 433.998,373.039 -15.96,-31.468 -39.29,-51.398 -64.96,-51.867"
         style="fill:#2659ac;fill-opacity:1;fill-rule:nonzero;stroke:none"
         id="path78"
         inkscape:connector-curvature="0" /><path
         d="m 1282.78,796.121 c -52.45,-0.973 -63.53,68.551 -124.15,68.551 -60.61,0 -61.49,-68.551 -119.78,-68.551 -58.28,0 -67.608,67.68 -124.147,68.551 -56.535,0.887 -66.445,-68.551 -122.398,-68.551 -55.957,0 -78.098,68.551 -129.395,68.551 -51.289,0 -69.066,-62.434 -125.015,-62.434 -23.422,0 -43.942,16.141 -57.766,44.082 32.656,-210.539 213.777,-371.371 433.613,-371.371 220.718,0 402.418,161.383 433.998,373.039 -15.96,-31.468 -39.29,-51.398 -64.96,-51.867 z"
         style="fill:none;stroke:#231f20;stroke-width:14.28999996;stroke-linecap:butt;stroke-linejoin:miter;stroke-miterlimit:4;stroke-dasharray:none;stroke-opacity:1"
         id="path80"
         inkscape:connector-curvature="0" /><g
         id="g82"><g
           id="g84"
           clip-path="url(#clipPath86)"><path
             d="m 475.137,1520.88 0,-621.911 0.297,0 c 8.129,-235.078 201.238,-423.18 438.3,-423.18 237.066,0 430.166,188.102 438.296,423.18 l 0.29,0 0,621.911 -877.183,0 z"
             style="fill:none;stroke:#231f20;stroke-width:14.28999996;stroke-linecap:butt;stroke-linejoin:miter;stroke-miterlimit:4;stroke-dasharray:none;stroke-opacity:1"
             id="path90"
             inkscape:connector-curvature="0" /></g></g></g></g></svg>