<?xml version="1.0" encoding="UTF-8" standalone="no"?>
<svg
   version="1.1"
   width="1504"
   height="1503"
   id="svg4"
   sodipodi:docname="Symbol_cirkel_svart.svg"
   inkscape:version="1.3 (0e150ed6c4, 2023-07-21)"
   xmlns:inkscape="http://www.inkscape.org/namespaces/inkscape"
   xmlns:sodipodi="http://sodipodi.sourceforge.net/DTD/sodipodi-0.dtd"
   xmlns="http://www.w3.org/2000/svg"
   xmlns:svg="http://www.w3.org/2000/svg">
  <defs
     id="defs4" />
  <sodipodi:namedview
     id="namedview4"
     pagecolor="#505050"
     bordercolor="#eeeeee"
     borderopacity="1"
     inkscape:showpageshadow="0"
     inkscape:pageopacity="0"
     inkscape:pagecheckerboard="0"
     inkscape:deskcolor="#d1d1d1"
     inkscape:zoom="0.54997194"
     inkscape:cx="676.39814"
     inkscape:cy="710.03622"
     inkscape:window-width="2560"
     inkscape:window-height="1373"
     inkscape:window-x="0"
     inkscape:window-y="0"
     inkscape:window-maximized="1"
     inkscape:current-layer="svg4" />
  <ellipse
     style="fill:#1a1a1a;stroke:#000000;stroke-width:1.00157;fill-opacity:1"
     id="path5"
     cx="752"
     cy="751.5"
     rx="752"
     ry="751.5" />
  <path
     d="M0 0 C44.81675351 -0.25177024 89.63343217 -0.44560223 134.45075345 -0.56171862 C139.74166556 -0.57547642 145.03257629 -0.58971396 150.32348633 -0.60424805 C151.37681255 -0.60713346 152.43013877 -0.61001888 153.51538397 -0.61299173 C170.57145049 -0.66085816 187.62710925 -0.74758909 204.68293386 -0.84868076 C222.18345392 -0.95154317 239.68376041 -1.0126455 257.18457037 -1.03497344 C267.98403016 -1.05006816 278.78233742 -1.09774213 289.58144242 -1.18708114 C296.98656432 -1.24522217 304.39109032 -1.26280269 311.7964239 -1.24851515 C316.06961662 -1.24146776 320.34079565 -1.25227424 324.61363029 -1.31126022 C328.52881367 -1.36491358 332.44063629 -1.36743172 336.35597653 -1.32988784 C337.76938497 -1.32525071 339.18300557 -1.33911929 340.59599816 -1.37371501 C346.55190541 -1.51101812 351.15362484 -1.60363695 355.78733933 2.42089498 C358.06394688 5.18646959 360.04529801 8.00201335 362 11 C362.95978533 12.13016429 363.94475736 13.2401669 364.96875 14.3125 C369.28823836 18.89862344 373.49128181 23.5207833 377.4375 28.4375 C380.80346265 32.62237307 384.33176017 36.58314398 388 40.5 C392.45872195 45.26091334 396.63797624 50.16467563 400.72265625 55.25390625 C403.2182639 58.26318958 405.83763481 61.13940286 408.5 64 C411.95161936 67.70861688 415.26522148 71.48505895 418.4375 75.4375 C422.28110057 80.21621628 426.36960164 84.69157687 430.55834961 89.16381836 C434.4599667 93.35329526 438.07324797 97.72172936 441.65625 102.1875 C444.33208171 105.39849805 447.14358276 108.45029137 450 111.5 C454.43832674 116.23866464 458.5914225 121.12119326 462.65625 126.1875 C465.33208278 129.39849934 468.14359707 132.45027636 471 135.5 C475.45874444 140.26088994 479.6379783 145.1646782 483.72265625 150.25390625 C486.2182639 153.26318958 488.83763481 156.13940286 491.5 159 C494.95161936 162.70861688 498.26522148 166.48505895 501.4375 170.4375 C505.28110057 175.21621628 509.36960164 179.69157687 513.55834961 184.16381836 C517.4599667 188.35329526 521.07324797 192.72172936 524.65625 197.1875 C527.33208171 200.39849805 530.14358276 203.45029137 533 206.5 C537.43832674 211.23866464 541.5914225 216.12119326 545.65625 221.1875 C548.33208171 224.39849805 551.14358276 227.45029137 554 230.5 C558.43832674 235.23866464 562.5914225 240.12119326 566.65625 245.1875 C569.33208278 248.39849934 572.14359707 251.45027636 575 254.5 C579.45874444 259.26088994 583.6379783 264.1646782 587.72265625 269.25390625 C590.2182639 272.26318958 592.83763481 275.13940286 595.5 278 C598.95161936 281.70861688 602.26522148 285.48505895 605.4375 289.4375 C609.28110057 294.21621628 613.36960164 298.69157687 617.55834961 303.16381836 C621.4599667 307.35329526 625.07324797 311.72172936 628.65625 316.1875 C631.33208171 319.39849805 634.14358276 322.45029137 637 325.5 C641.43832674 330.23866464 645.5914225 335.12119326 649.65625 340.1875 C652.33208171 343.39849805 655.14358276 346.45029137 658 349.5 C662.43832674 354.23866464 666.5914225 359.12119326 670.65625 364.1875 C673.33208278 367.39849934 676.14359707 370.45027636 679 373.5 C683.45874444 378.26088994 687.6379783 383.1646782 691.72265625 388.25390625 C694.2182639 391.26318958 696.83763481 394.13940286 699.5 397 C702.95161936 400.70861688 706.26522148 404.48505895 709.4375 408.4375 C713.28110057 413.21621628 717.36960164 417.69157687 721.55834961 422.16381836 C725.4599667 426.35329526 729.07324797 430.72172936 732.65625 435.1875 C735.33208171 438.39849805 738.14358276 441.45029137 741 444.5 C744.64886656 448.39578234 748.15698239 452.33334037 751.5 456.5 C755.33220042 461.27283143 759.39087102 465.77305835 763.57617188 470.234375 C764.51425554 471.23516821 765.44462467 472.24326177 766.36623377 473.25924635 C767.98610136 475.02679797 767.98610136 475.02679797 769.79386193 476.65604067 C774.54714826 481.34882569 775.8109468 484.77949871 775.90356916 491.41346884 C775.87298433 493.02438587 775.87298433 493.02438587 775.84178162 494.66784668 C775.84776259 495.82624384 775.85374356 496.98464101 775.85990578 498.17814112 C775.8694095 501.37605877 775.8476682 504.57196771 775.81245935 507.76964808 C775.78212882 511.22420642 775.79246678 514.67867719 775.79777527 518.1333313 C775.80143945 524.1128081 775.77954424 530.09174875 775.7401104 536.0710907 C775.68313409 544.71603636 775.66498151 553.36072372 775.65619446 562.00583678 C775.64088756 576.03300937 775.59433997 590.05989644 775.52807617 604.08691406 C775.46378786 617.70994644 775.41425619 631.33290117 775.38452148 644.95605469 C775.38268242 645.79628565 775.38084336 646.63651662 775.37894856 647.50220913 C775.36981306 651.71755166 775.36096716 655.93289474 775.35226524 660.14823818 C775.27974028 695.09902896 775.15648528 730.04948811 775 765 C730.45505751 765.25180508 685.91019038 765.44561993 641.36467642 765.56171862 C636.10509562 765.57547631 630.84551621 765.58971387 625.5859375 765.60424805 C624.53885482 765.60713346 623.49177214 765.61001888 622.41295968 765.61299173 C605.46103169 765.66084988 588.50951424 765.74757625 571.55782975 765.84868076 C554.16239619 765.95156621 536.76717756 766.01265037 519.37145221 766.03497344 C508.63801724 766.05006339 497.90574266 766.09771138 487.17266493 766.18708114 C479.81145354 766.24525062 472.45084156 766.26279625 465.08941706 766.24851515 C460.84242367 766.24147217 456.5974568 766.2522236 452.35082436 766.31126022 C448.45840507 766.3649763 444.5693649 766.36739158 440.67678677 766.32988784 C439.27278126 766.32525677 437.86856106 766.33907229 436.46497537 766.37371501 C430.46448948 766.51314286 425.86492974 766.47675172 421.04264426 762.65820658 C418.4837512 759.88067467 416.22763319 757.04702026 414 754 C412.48655749 752.13979576 410.9667088 750.28476514 409.4375 748.4375 C408.70402344 747.52871094 407.97054688 746.61992188 407.21484375 745.68359375 C405.04367173 743.05291443 402.79758643 740.52057576 400.5 738 C396.58108748 733.70008209 392.90829131 729.24080453 389.25 724.71875 C387.06498431 722.07852271 384.80828609 719.5327028 382.5 717 C378.58108748 712.70008209 374.90829131 708.24080453 371.25 703.71875 C369.06498431 701.07852271 366.80828609 698.5327028 364.5 696 C361.47717579 692.68010514 358.57487839 689.30235888 355.75 685.8125 C350.53481485 679.37288007 345.08668248 673.14544597 339.64648438 666.89648438 C337.06362591 663.92144811 334.49943086 660.9305594 331.9375 657.9375 C331.44660889 657.36410889 330.95571777 656.79071777 330.44995117 656.19995117 C329.46114797 655.04469482 328.47245951 653.88934024 327.48388672 652.73388672 C324.99104476 649.82105954 322.49537234 646.91065939 320 644 C318.9999866 642.83334482 317.99998659 641.66667816 317 640.5 C316.505 639.9225 316.01 639.345 315.5 638.75 C294 613.66666667 272.5 588.58333333 251 563.5 C250.5047583 562.9222583 250.0095166 562.3445166 249.49926758 561.74926758 C248.50154805 560.58518023 247.50398886 559.42095544 246.5065918 558.2565918 C243.97301257 555.29930113 241.43649863 552.34461631 238.89453125 549.39453125 C234.30393447 544.06164678 229.74238602 538.71814055 225.3125 533.25 C221.76254679 528.87492253 218.04436179 524.69450808 214.25 520.53125 C211.13067124 517.02200514 208.20250867 513.36837877 205.25 509.71875 C203.06498431 507.07852271 200.80828609 504.5327028 198.5 502 C194.58108748 497.70008209 190.90829131 493.24080453 187.25 488.71875 C185.06498431 486.07852271 182.80828609 483.5327028 180.5 481 C176.58108748 476.70008209 172.90829131 472.24080453 169.25 467.71875 C167.06498431 465.07852271 164.80828609 462.5327028 162.5 460 C158.58108748 455.70008209 154.90829131 451.24080453 151.25 446.71875 C149.06498431 444.07852271 146.80828609 441.5327028 144.5 439 C140.58108748 434.70008209 136.90829131 430.24080453 133.25 425.71875 C131.06498431 423.07852271 128.80828609 420.5327028 126.5 418 C123.47717579 414.68010514 120.57487839 411.30235888 117.75 407.8125 C112.53481485 401.37288007 107.08668248 395.14544597 101.64648438 388.89648438 C99.06362591 385.92144811 96.49943086 382.9305594 93.9375 379.9375 C93.44660889 379.36410889 92.95571777 378.79071777 92.44995117 378.19995117 C91.46114797 377.04469482 90.47245951 375.88934024 89.48388672 374.73388672 C86.99104476 371.82105954 84.49537234 368.91065939 82 366 C80.9999866 364.83334482 79.99998659 363.66667816 79 362.5 C78.505 361.9225 78.01 361.345 77.5 360.75 C51.25 330.125 51.25 330.125 25 299.5 C24.50435547 298.9217749 24.00871094 298.3435498 23.49804688 297.74780273 C22.50444992 296.58855231 21.51095922 295.4292108 20.51757812 294.26977539 C17.92050405 291.23886026 15.32125287 288.20984931 12.71875 285.18359375 C12.17992187 284.55646484 11.64109375 283.92933594 11.0859375 283.28320312 C10.06058367 282.08990341 9.03458586 280.89715662 8.0078125 279.70507812 C7.30785156 278.89006836 7.30785156 278.89006836 6.59375 278.05859375 C6.18833984 277.58736084 5.78292969 277.11612793 5.36523438 276.63061523 C4.91470703 276.09251221 4.46417969 275.55440918 4 275 C2.98264456 274.04777164 2.98264456 274.04777164 1.94473648 273.07630634 C-0.9367046 268.51826182 -0.54050604 264.43791067 -0.48101807 259.14848328 C-0.48443577 258.04165201 -0.48785347 256.93482075 -0.49137473 255.79444915 C-0.4979735 252.0784432 -0.47594342 248.36315643 -0.45410156 244.6472168 C-0.45297352 241.98639801 -0.45342988 239.32562355 -0.45587158 236.66481018 C-0.45796853 230.9326143 -0.44542349 225.2006006 -0.42292023 219.46845055 C-0.39040564 211.18076588 -0.37999378 202.89316926 -0.37496826 194.60542772 C-0.36621475 181.15902102 -0.33959767 167.71271141 -0.30175781 154.26635742 C-0.26503917 141.20483892 -0.2367267 128.1433468 -0.21972656 115.08178711 C-0.21867567 114.27661192 -0.21762477 113.47143673 -0.21654204 112.6418623 C-0.21132187 108.6025164 -0.20626704 104.56317031 -0.20129442 100.5238241 C-0.15983064 67.01581232 -0.0893807 33.50791806 0 0 Z "
     fill="#FEFEFE"
     transform="translate(364,369)"
     id="path2" />
  <path
     d="M0 0 C8.08610241 8.08610241 15.65191373 16.44846225 22.8203125 25.3515625 C24.97757399 27.97275119 27.21311 30.49154281 29.5 33 C32.52282421 36.31989486 35.42512161 39.69764112 38.25 43.1875 C43.46386438 49.62548906 48.91041253 55.85163566 54.34912109 62.09912109 C61.25089085 70.04605682 68.06687286 78.06677899 74.8581543 86.1081543 C80.20486451 92.43447289 85.60347353 98.71618337 91 105 C97.31088314 112.34851068 103.6080438 119.70740317 109.85791016 127.10791016 C115.20478107 133.43424365 120.60339832 139.71609579 126 146 C132.31088314 153.34851068 138.6080438 160.70740317 144.85791016 168.10791016 C150.20478107 174.43424365 155.60339832 180.71609579 161 187 C167.31088314 194.34851068 173.6080438 201.70740317 179.85791016 209.10791016 C185.20478107 215.43424365 190.60339832 221.71609579 196 228 C202.31088314 235.34851068 208.6080438 242.70740317 214.85791016 250.10791016 C220.20478107 256.43424365 225.60339832 262.71609579 231 269 C237.31088314 276.34851068 243.6080438 283.70740317 249.85791016 291.10791016 C255.20478107 297.43424365 260.60339832 303.71609579 266 310 C272.31088314 317.34851068 278.6080438 324.70740317 284.85791016 332.10791016 C290.20478107 338.43424365 295.60339832 344.71609579 301 351 C307.30274697 358.33903677 313.6008999 365.68108352 319.83154297 373.08154297 C322.31562558 376.02761261 324.82210294 378.95161356 327.35546875 381.85546875 C328.18884766 382.81453125 328.18884766 382.81453125 329.0390625 383.79296875 C330.11960435 385.03482372 331.20411029 386.27324306 332.29296875 387.5078125 C336 391.77681391 336 391.77681391 336 394 C225.12 394 114.24 394 0 394 C0 263.98 0 133.96 0 0 Z "
     fill="#FEFEFE"
     transform="translate(364,740)"
     id="path3" />
  <path
     d="M0 0 C111.21 0 222.42 0 337 0 C337 128.04 337 256.08 337 388 C328.62373818 379.62373818 320.69425774 370.98705892 313.27734375 361.74609375 C310.78173453 358.73680853 308.16233195 355.86062978 305.5 353 C301.21039593 348.39001057 297.19588878 343.62216484 293.24609375 338.71484375 C290.9116941 335.89326505 288.48009402 333.19409288 286 330.5 C282.72581577 326.94329756 279.59357567 323.32838189 276.5625 319.5625 C272.90428985 315.02683557 269.05257035 310.7429883 265.08618164 306.48071289 C261.30509442 302.39338994 257.80310034 298.11956756 254.3125 293.78125 C251.80028867 290.75980664 249.17597543 287.87559922 246.5 285 C242.2104224 280.38998361 238.19589103 275.62216764 234.24609375 270.71484375 C231.9116941 267.89326505 229.48009402 265.19409288 227 262.5 C223.72581577 258.94329756 220.59357567 255.32838189 217.5625 251.5625 C213.90428985 247.02683557 210.05257035 242.7429883 206.08618164 238.48071289 C202.30509442 234.39338994 198.80310034 230.11956756 195.3125 225.78125 C192.80028867 222.75980664 190.17597543 219.87559922 187.5 217 C183.2104224 212.38998361 179.19589103 207.62216764 175.24609375 202.71484375 C172.9116941 199.89326505 170.48009402 197.19409288 168 194.5 C164.72581577 190.94329756 161.59357567 187.32838189 158.5625 183.5625 C154.90428985 179.02683557 151.05257035 174.7429883 147.08618164 170.48071289 C143.30509442 166.39338994 139.80310034 162.11956756 136.3125 157.78125 C133.80028867 154.75980664 131.17597543 151.87559922 128.5 149 C124.2104224 144.38998361 120.19589103 139.62216764 116.24609375 134.71484375 C113.9116941 131.89326505 111.48009402 129.19409288 109 126.5 C105.72581577 122.94329756 102.59357567 119.32838189 99.5625 115.5625 C95.90428985 111.02683557 92.05257035 106.7429883 88.08618164 102.48071289 C84.30509442 98.39338994 80.80310034 94.11956756 77.3125 89.78125 C74.80028867 86.75980664 72.17597543 83.87559922 69.5 81 C65.2104224 76.38998361 61.19589103 71.62216764 57.24609375 66.71484375 C54.9116941 63.89326505 52.48009402 61.19409288 50 58.5 C46.72581577 54.94329756 43.59357567 51.32838189 40.5625 47.5625 C36.90428985 43.02683557 33.05257035 38.7429883 29.08618164 34.48071289 C25.31003577 30.3987315 21.8112376 26.13197198 18.328125 21.796875 C14.90578334 17.68547126 11.25097102 13.80950734 7.578125 9.921875 C4.82470846 6.80133626 2.41889135 3.38644789 0 0 Z "
     fill="#FEFEFE"
     transform="translate(802,369)"
     id="path4" />
</svg>
