<?xml version="1.0" encoding="UTF-8" standalone="no"?>
<!-- Created with Inkscape (http://www.inkscape.org/) -->

<svg
   xmlns:dc="http://purl.org/dc/elements/1.1/"
   xmlns:cc="http://creativecommons.org/ns#"
   xmlns:rdf="http://www.w3.org/1999/02/22-rdf-syntax-ns#"
   xmlns:svg="http://www.w3.org/2000/svg"
   xmlns="http://www.w3.org/2000/svg"
   xmlns:sodipodi="http://sodipodi.sourceforge.net/DTD/sodipodi-0.dtd"
   xmlns:inkscape="http://www.inkscape.org/namespaces/inkscape"
   id="svg2"
   version="1.1"
   inkscape:version="0.92.3 (2405546, 2018-03-11)"
   width="195.3884"
   height="138.8716"
   xml:space="preserve"
   sodipodi:docname="Teknikcollege-White_-_No_text.svg"
   inkscape:export-filename="/home/kenneth/Dropbox/TDA/Logotyper/Teknikcollege/Teknikcollege-Grey_No_text.png"
   inkscape:export-xdpi="299.89999"
   inkscape:export-ydpi="299.89999"
   viewBox="0 0 183.17662 130.19212"><metadata
     id="metadata8"><rdf:RDF><cc:Work
         rdf:about=""><dc:format>image/svg+xml</dc:format><dc:type
           rdf:resource="http://purl.org/dc/dcmitype/StillImage" /><dc:title></dc:title></cc:Work></rdf:RDF></metadata><defs
     id="defs6"><clipPath
       clipPathUnits="userSpaceOnUse"
       id="clipPath40"><path
         d="M 0,841.89 H 595.276 V 0 H 0 Z"
         id="path42"
         inkscape:connector-curvature="0" /></clipPath></defs><sodipodi:namedview
     pagecolor="#ffffff"
     bordercolor="#666666"
     borderopacity="1"
     objecttolerance="10"
     gridtolerance="10"
     guidetolerance="10"
     inkscape:pageopacity="0"
     inkscape:pageshadow="2"
     inkscape:window-width="1600"
     inkscape:window-height="835"
     id="namedview4"
     showgrid="false"
     inkscape:showpageshadow="true"
     showborder="true"
     inkscape:zoom="3.588117"
     inkscape:cx="70.299601"
     inkscape:cy="78.930248"
     inkscape:window-x="0"
     inkscape:window-y="0"
     inkscape:window-maximized="1"
     inkscape:current-layer="g10"
     fit-margin-top="0"
     fit-margin-left="0"
     fit-margin-right="0"
     fit-margin-bottom="0"
     borderlayer="true" /><g
     id="g10"
     inkscape:groupmode="layer"
     inkscape:label="logotype_orginal"
     transform="matrix(1.25,0,0,-1.25,-344.29727,616.49612)"><g
       id="g3387"
       style="fill:#fdfdfd;fill-opacity:1"
       transform="translate(49.496714,-43.699802)"
       inkscape:export-xdpi="1199.8257"
       inkscape:export-ydpi="1199.8257"
       inkscape:export-filename="/home/kenneth/Dropbox/TDA/Logotyper/Teknikcollege/Teknikcollege-Grey_No_text.png"><path
         inkscape:connector-curvature="0"
         id="path72"
         style="fill:#fdfdfd;fill-opacity:1;fill-rule:nonzero;stroke:none"
         d="m 271.096,449.122 h 56.051 v -16.379 h -56.051 z" /><g
         transform="translate(310.1934,525.8257)"
         id="g74"
         style="fill:#fdfdfd;fill-opacity:1"><path
           inkscape:connector-curvature="0"
           id="path76"
           style="fill:#fdfdfd;fill-opacity:1;fill-rule:nonzero;stroke:none"
           d="m 0,0 c 0,-6.116 -4.953,-11.075 -11.072,-11.075 -6.108,0 -11.069,4.959 -11.069,11.075 0,6.112 4.961,11.071 11.069,11.071 C -4.953,11.071 0,6.112 0,0" /></g><g
         transform="translate(248.0811,492.0005)"
         id="g78"
         style="fill:#fdfdfd;fill-opacity:1"><path
           inkscape:connector-curvature="0"
           id="path80"
           style="fill:#fdfdfd;fill-opacity:1;fill-rule:nonzero;stroke:none"
           d="m 0,0 c 0,-6.116 -4.949,-11.071 -11.071,-11.071 -6.11,0 -11.069,4.955 -11.069,11.071 0,6.116 4.959,11.067 11.069,11.067 C -4.949,11.067 0,6.116 0,0" /></g><g
         transform="translate(372.4824,492.0005)"
         id="g82"
         style="fill:#fdfdfd;fill-opacity:1"><path
           inkscape:connector-curvature="0"
           id="path84"
           style="fill:#fdfdfd;fill-opacity:1;fill-rule:nonzero;stroke:none"
           d="m 0,0 c 0,-6.116 -4.957,-11.071 -11.078,-11.071 -6.11,0 -11.07,4.955 -11.07,11.071 0,6.116 4.96,11.071 11.07,11.071 C -4.957,11.071 0,6.116 0,0" /></g><g
         transform="translate(271.6943,495.4673)"
         id="g86"
         style="fill:#fdfdfd;fill-opacity:1"><path
           inkscape:connector-curvature="0"
           id="path88"
           style="fill:#fdfdfd;fill-opacity:1;fill-rule:nonzero;stroke:none"
           d="m 0,0 c 4.458,0 8.733,-0.821 12.671,-2.313 4.062,3.206 9.183,5.121 14.762,5.121 5.652,0 10.836,-1.964 14.921,-5.242 C 46.39,-0.863 50.769,0 55.358,0 55.714,0 56.054,-0.021 56.405,-0.027 49.901,8.924 39.343,14.751 27.433,14.751 15.511,14.751 4.962,8.917 -1.552,-0.038 -1.036,-0.021 -0.515,0 0,0" /></g><g
         transform="translate(326.1035,490.6606)"
         id="g90"
         style="fill:#fdfdfd;fill-opacity:1"><path
           inkscape:connector-curvature="0"
           id="path92"
           style="fill:#fdfdfd;fill-opacity:1;fill-rule:nonzero;stroke:none"
           d="m 0,0 c -10.762,0 -20.406,-4.744 -26.961,-12.26 v 0.045 c -6.57,7.524 -16.227,12.278 -26.997,12.278 -19.779,0 -35.811,-16.034 -35.811,-35.81 0,-8.165 2.742,-15.692 7.34,-21.713 h 18.553 c -8.232,3.768 -13.953,12.066 -13.953,21.713 0,10.109 6.286,18.745 15.159,22.227 -0.07,-0.905 -0.119,-1.817 -0.119,-2.74 0,-7.742 2.466,-14.898 6.644,-20.757 h 17.385 c -7.22,4.102 -12.094,11.862 -12.094,20.757 0,1.419 0.131,2.806 0.37,4.155 7.642,-1.038 13.759,-5.536 17.773,-12.75 3.143,-5.662 4.918,-9.435 5.723,-11.262 v -0.12 c 0.797,1.809 2.574,5.604 5.746,11.318 4.012,7.217 10.14,11.716 17.785,12.749 0.23,-1.328 0.352,-2.694 0.352,-4.09 0,-8.895 -4.875,-16.655 -12.09,-20.757 h 17.39 c 4.184,5.859 6.637,13.015 6.637,20.757 0,0.9 -0.047,1.788 -0.113,2.671 8.875,-3.483 15.16,-12.116 15.16,-22.225 0,-9.639 -5.723,-17.943 -13.953,-21.709 h 18.547 c 4.601,6.024 7.34,13.547 7.34,21.709 C 35.813,-16.038 19.781,0 0,0" /></g></g></g></svg>